<svg version="1.1" id="Layer_1" xmlns="http://www.w3.org/2000/svg" xmlns:xlink="http://www.w3.org/1999/xlink" x="0" y="0" viewBox="0 0 2082 547" xml:space="preserve"><style>.st0{fill:#ffe544}.st1{fill:#c17506}.st3{fill:#ffb800}.st4{fill:#fff}.st5{fill:#dd890e}.st13{fill:#eaeaea}.st16{fill:#fede0d}.st19{opacity:.6}.st21{stroke:#a0a0a0}.st21,.st22,.st24{fill:none;stroke-miterlimit:10}.st22{stroke:#d88000}.st24{stroke:#fede0d}.st27{fill:#aaa9a7}.st29{fill:#648ae0}.st30{fill:#969696}.st31{fill:#ddd}.st33{fill:#b5b5b5}.st40{opacity:.7}.st44,.st45{fill:none;stroke:#fff;stroke-linecap:round;stroke-linejoin:round;stroke-miterlimit:10}.st45{stroke:#fede0d}.st46{fill:#33332d}.st47{fill:#4e4e43}.st49{fill:#606055}.st50{fill:#a5a4a2}.st52{stroke:#648ae0;stroke-width:1.25;stroke-linecap:round;stroke-linejoin:round;fill:none;stroke-miterlimit:10}.st55{fill:#8c8984}.st56{fill:#666564}.st62{fill:#ddc90e}.st63,.st68{fill:none;stroke:#fff;stroke-linecap:round;stroke-linejoin:round}.st68{stroke:#b7a106;stroke-miterlimit:10;stroke-dasharray:1,2}.st71{opacity:.9}.st72{opacity:.8}.st72,.st74{fill:#b7a106}.st75{opacity:.6;fill:#fcf010}.st77{fill:#ffeac5}</style><path class="st0" d="M17 49.5c-22.7 11-22.7 43.4 0 54.4l874.1 422.5c32.7 15.8 70.8 15.8 103.4 0L2081.8 0H119.3L17 49.5z"/><path class="st1" d="M910.2 324.8l-126.7-61.2c-5.8-2.8-12.6-2.8-18.4 0l-137.9 66.7c-.2.1-.5.3-.7.4l-2.4-2v3.1c0 2 1 4 3.1 5l137.9 66.7c5.8 2.8 12.6 2.8 18.4 0l138-66.7c1.8-.9 2.9-2.5 3.1-4.3v-3.6l-14.4-4.1z"/><path d="M626.4 330.7c.2-.1.5-.3.7-.4l1.4-.7v7.8l-1.4-.7c-2.1-1-3.1-3-3.1-5v-3.1l2.4 2.1z" fill="#c1bebc"/><path class="st3" d="M627.1 333.6L765 400.3c5.8 2.8 12.6 2.8 18.4 0l138-66.7c4.1-2 4.1-7.9 0-9.9l-138-66.6c-5.8-2.8-12.6-2.8-18.4 0l-137.9 66.7c-4.1 1.9-4.1 7.8 0 9.8z"/><path class="st4" d="M627.1 323.7l40.6-19.6L765 257c5.8-2.8 12.6-2.8 18.4 0l2.4 1.2-157.4 76.1-1.3-.6c-4.1-2.1-4.1-8 0-10z"/><path class="st5" d="M668.2 322.8l49.8-24.1 3.5 1.7 33.2-16 124.1 60-82.9 40.1-124.2-60z"/><path fill="#e08f0e" d="M753.7 281.6l14.2-6.9 3.5 1.6 17.7-8.5 95.1 45.9-32.1 15.5-95-45.9v-.1z"/><path fill="#e29700" d="M854.5 330.4l26.7 12.9 32.1-15.5-26.7-12.9z"/><path class="st5" d="M645.5 333.8l14.3-6.9 3.5 1.7 6-2.9 124.2 60-20.3 9.8-124.2-60z"/><path d="M709.9 316.6l-20 9.7c-.3.1-.8.1-1.2-.1-.4-.2-.4-.4-.1-.6l20-9.7c.3-.1.8-.1 1.2.1.3.3.4.5.1.6zm-20.2 5l-4.7 2.3c-.3.1-.8.1-1.2-.1-.4-.2-.4-.4-.1-.6l4.7-2.3c.3-.1.8-.1 1.2.1.4.2.4.5.1.6zm31.7-10.5l-8.6 4.1c-.3.1-.8.1-1.2-.1-.4-.2-.4-.4-.1-.6l8.6-4.1c.3-.1.8-.1 1.2.1.3.2.4.5.1.6zm-10.5 9.8l-12.4 6c-.3.1-.8.1-1.2-.1-.4-.2-.4-.4-.1-.6l12.4-6c.3-.1.8-.1 1.2.1.3.2.4.5.1.6zm11.5-5.5l-8.6 4.1c-.3.1-.8.1-1.2-.1-.4-.2-.4-.4-.1-.6l8.6-4.1c.3-.1.8-.1 1.2.1.3.2.4.4.1.6zm23-11.1l-20 9.7c-.3.1-.8.1-1.2-.1-.4-.2-.4-.4-.1-.6l20-9.7c.3-.1.8-.1 1.2.1.3.2.3.4.1.6zM708 327l-4.7 2.3c-.3.1-.8.1-1.2-.1-.4-.2-.4-.4-.1-.6l4.7-2.3c.3-.1.8-.1 1.2.1.4.2.4.4.1.6zm23-11.1l-20 9.7c-.3.1-.8.1-1.2-.1-.4-.2-.4-.4-.1-.6l20-9.7c.3-.1.8-.1 1.2.1.3.2.4.5.1.6zm19.2-9.2l-16.2 7.8c-.3.1-.8.1-1.2-.1-.4-.2-.4-.4-.1-.6l16.2-7.8c.3-.1.8-.1 1.2.1.3.2.4.4.1.6zm-25.8 17.1l-12.4 6c-.3.1-.8.1-1.2-.1-.4-.2-.4-.4-.1-.6l12.4-6c.3-.1.8-.1 1.2.1.3.3.3.5.1.6zm22.6-10.9l-19.7 9.5c-.3.1-.8.1-1.2-.1-.4-.2-.4-.4-.1-.6l19.7-9.5c.3-.1.8-.1 1.2.1.3.3.3.5.1.6zm8-3.8l-5.1 2.5c-.3.1-.8.1-1.2-.1-.4-.2-.4-.4-.1-.6l5.1-2.5c.3-.1.8-.1 1.2.1.3.2.4.4.1.6zm-34.3 21.2l-11.6 5.6c-.3.1-.8.1-1.2-.1-.4-.2-.4-.4-.1-.6l11.6-5.6c.3-.1.8-.1 1.2.1.4.2.4.5.1.6zm16.1-7.8l-13.2 6.3c-.3.1-.8.1-1.2-.1-.4-.2-.4-.4-.1-.6l13.2-6.3c.3-.1.8-.1 1.2.1.4.3.4.5.1.6zm9.2-4.4l-5.9 2.8c-.3.1-.8.1-1.2-.1-.4-.2-.4-.4-.1-.6l5.9-2.8c.3-.1.8-.1 1.2.1.4.2.4.5.1.6zm-15.8 12.4l-12.4 6c-.3.1-.8.1-1.2-.1-.4-.2-.4-.4-.1-.6l12.4-6c.3-.1.8-.1 1.2.1.3.2.4.4.1.6zm11.5-5.6l-8.6 4.1c-.3.1-.8.1-1.2-.1-.4-.2-.4-.4-.1-.6l8.6-4.1c.3-.1.8-.1 1.2.1.3.3.3.5.1.6zm23-11l-20 9.7c-.3.1-.8.1-1.2-.1-.4-.2-.4-.4-.1-.6l20-9.7c.3-.1.8-.1 1.2.1.3.2.3.4.1.6zm-35.1 21.6l-7 3.4c-.3.1-.8.1-1.2-.1-.4-.2-.4-.4-.1-.6l7-3.4c.3-.1.8-.1 1.2.1.4.2.4.4.1.6zm20.7-10l-17.7 8.6c-.3.1-.8.1-1.2-.1-.4-.2-.4-.4-.1-.6l17.7-8.6c.3-.1.8-.1 1.2.1.3.2.4.5.1.6zm19.2-9.2l-16.2 7.8c-.3.1-.8.1-1.2-.1-.4-.2-.4-.4-.1-.6l16.2-7.8c.3-.1.8-.1 1.2.1.3.2.4.4.1.6zm-25.9 17.1l-12.4 6c-.3.1-.8.1-1.2-.1-.4-.2-.4-.4-.1-.6l12.4-6c.3-.1.8-.1 1.2.1.4.2.4.5.1.6zm26.5-12.7L746.6 332c-.3.1-.8.1-1.2-.1-.4-.2-.4-.4-.1-.6l23.5-11.3c.3-.1.8-.1 1.2.1.3.2.4.5.1.6zm4.2-2l-1.3.6c-.3.1-.8.1-1.2-.1-.4-.2-.4-.4-.1-.6l1.3-.6c.3-.1.8-.1 1.2.1.3.2.4.4.1.6zM740 339.9l-11.6 5.6c-.3.1-.8.1-1.2-.1-.4-.2-.4-.4-.1-.6l11.6-5.6c.3-.1.8-.1 1.2.1.4.2.4.4.1.6zm16.1-7.8l-13.2 6.3c-.3.1-.8.1-1.2-.1-.4-.2-.4-.4-.1-.6l13.2-6.3c.3-.1.8-.1 1.2.1.4.2.4.5.1.6zM773 324l-13.5 6.5c-.3.1-.8.1-1.2-.1-.4-.2-.4-.4-.1-.6l13.5-6.5c.3-.1.8-.1 1.2.1.3.2.4.5.1.6zm-23.5 16.1l-12.4 6c-.3.1-.8.1-1.2-.1-.4-.2-.4-.4-.1-.6l12.4-6c.3-.1.8-.1 1.2.1.3.2.3.4.1.6zm11.5-5.6l-8.6 4.1c-.3.1-.8.1-1.2-.1-.4-.2-.4-.4-.1-.6l8.6-4.1c.3-.1.8-.1 1.2.1.3.2.3.5.1.6zm22.9-11l-20 9.7c-.3.1-.8.1-1.2-.1-.4-.2-.4-.4-.1-.6l20-9.7c.3-.1.8-.1 1.2.1.4.2.4.4.1.6zm-35 21.5l-3.2 1.5c-.3.1-.8.1-1.2-.1-.4-.2-.4-.4-.1-.6l3.2-1.5c.3-.1.8-.1 1.2.1.3.3.4.5.1.6zm20.7-9.9l-17.7 8.6c-.3.1-.8.1-1.2-.1-.4-.2-.4-.4-.1-.6l17.7-8.6c.3-.1.8-.1 1.2.1.3.2.4.4.1.6zm19.2-9.2l-16.2 7.8c-.3.1-.8.1-1.2-.1-.4-.2-.4-.4-.1-.6l16.2-7.8c.3-.1.8-.1 1.2.1.3.2.3.4.1.6zM762.9 343l-8.6 4.1c-.3.1-.8.1-1.2-.1-.4-.2-.4-.4-.1-.6l8.6-4.1c.3-.1.8-.1 1.2.1.4.2.4.5.1.6zm18.8-9l-15.8 7.6c-.3.1-.8.1-1.2-.1-.4-.2-.4-.4-.1-.6l15.8-7.6c.3-.1.8-.1 1.2.1.3.2.4.4.1.6zm11.9-5.8l-8.9 4.3c-.3.1-.8.1-1.2-.1-.4-.2-.4-.4-.1-.6l8.9-4.3c.3-.1.8-.1 1.2.1.3.3.4.5.1.6zm-34.3 21.3l-11.6 5.6c-.3.1-.8.1-1.2-.1-.4-.2-.4-.4-.1-.6l11.6-5.6c.3-.1.8-.1 1.2.1.3.2.4.4.1.6zm16.1-7.8l-13.2 6.3c-.3.1-.8.1-1.2-.1-.4-.2-.4-.4-.1-.6l13.2-6.3c.3-.1.8-.1 1.2.1.3.2.4.5.1.6zm16.9-8.1l-13.5 6.5c-.3.1-.8.1-1.2-.1-.4-.2-.4-.4-.1-.6L791 333c.3-.1.8-.1 1.2.1.3.1.4.4.1.5zm-23.6 16.1l-12.4 6c-.3.1-.8.1-1.2-.1-.4-.2-.4-.4-.1-.6l12.4-6c.3-.1.8-.1 1.2.1.4.2.4.4.1.6zm11.5-5.6l-8.6 4.1c-.3.1-.8.1-1.2-.1-.4-.2-.4-.4-.1-.6l8.6-4.1c.3-.1.8-.1 1.2.1.4.2.4.5.1.6zm23-11.1l-20 9.7c-.3.1-.8.1-1.2-.1-.4-.2-.4-.4-.1-.6l20-9.7c.3-.1.8-.1 1.2.1.3.3.4.5.1.6zm-35 21.6l-3.2 1.5c-.3.1-.8.1-1.2-.1-.4-.2-.4-.4-.1-.6l3.2-1.5c.3-.1.8-.1 1.2.1.3.2.4.5.1.6zm20.7-9.9l-17.7 8.6c-.3.1-.8.1-1.2-.1-.4-.2-.4-.4-.1-.6l17.7-8.6c.3-.1.8-.1 1.2.1.3.2.4.4.1.6zm19.1-9.3l-16.2 7.8c-.3.1-.8.1-1.2-.1-.4-.2-.4-.4-.1-.6l16.2-7.8c.3-.1.8-.1 1.2.1.4.2.4.5.1.6zm-25.8 17.2l-8.6 4.1c-.3.1-.8.1-1.2-.1-.4-.2-.4-.4-.1-.6l8.6-4.1c.3-.1.8-.1 1.2.1.3.2.4.5.1.6zm18.8-9l-15.8 7.6c-.3.1-.8.1-1.2-.1-.4-.2-.4-.4-.1-.6l15.8-7.6c.3-.1.8-.1 1.2.1.3.2.4.4.1.6zm11.9-5.8l-8.9 4.3c-.3.1-.8.1-1.2-.1-.4-.2-.4-.4-.1-.6l8.9-4.3c.3-.1.8-.1 1.2.1.3.2.3.5.1.6zm-21 19.6l-20 9.7c-.3.1-.8.1-1.2-.1-.4-.2-.4-.4-.1-.6l20-9.7c.3-.1.8-.1 1.2.1.3.2.3.5.1.6zm-20.2 5l-4.7 2.3c-.3.1-.8.1-1.2-.1-.4-.2-.4-.4-.1-.6l4.7-2.3c.3-.1.8-.1 1.2.1.3.2.4.4.1.6zm31.7-10.5l-8.6 4.1c-.3.1-.8.1-1.2-.1-.4-.2-.4-.4-.1-.6l8.6-4.1c.3-.1.8-.1 1.2.1.3.2.3.4.1.6zm-10.5 9.7l-12.4 6c-.3.1-.8.1-1.2-.1-.4-.2-.4-.4-.1-.6l12.4-6c.3-.1.8-.1 1.2.1.3.2.3.5.1.6zm11.5-5.5l-8.6 4.1c-.3.1-.8.1-1.2-.1-.4-.2-.4-.4-.1-.6l8.6-4.1c.3-.1.8-.1 1.2.1.3.2.3.5.1.6zm22.9-11.1l-20 9.7c-.3.1-.8.1-1.2-.1-.4-.2-.4-.4-.1-.6l20-9.7c.3-.1.8-.1 1.2.1.4.2.4.5.1.6zM790 367.7l-4.7 2.3c-.3.1-.8.1-1.2-.1-.4-.2-.4-.4-.1-.6l4.7-2.3c.3-.1.8-.1 1.2.1.3.2.4.5.1.6zm23-11.1l-20 9.7c-.3.1-.8.1-1.2-.1-.4-.2-.4-.4-.1-.6l20-9.7c.3-.1.8-.1 1.2.1.3.3.4.5.1.6zm19.2-9.2l-16.2 7.8c-.3.1-.8.1-1.2-.1-.4-.2-.4-.4-.1-.6l16.2-7.8c.3-.1.8-.1 1.2.1.3.2.3.5.1.6zm-25.9 17.2l-12.4 6c-.3.1-.8.1-1.2-.1-.4-.2-.4-.4-.1-.6l12.4-6c.3-.1.8-.1 1.2.1.4.2.4.4.1.6zm22.6-10.9l-19.7 9.5c-.3.1-.8.1-1.2-.1-.4-.2-.4-.4-.1-.6l19.7-9.5c.3-.1.8-.1 1.2.1.4.2.4.5.1.6zm8.1-3.9l-5.1 2.5c-.3.1-.8.1-1.2-.1-.4-.2-.4-.4-.1-.6l5.1-2.5c.3-.1.8-.1 1.2.1.3.2.4.5.1.6zM802.7 371l-11.6 5.6c-.3.1-.8.1-1.2-.1-.4-.2-.4-.4-.1-.6l11.6-5.6c.3-.1.8-.1 1.2.1.3.2.4.5.1.6zm16.1-7.7l-13.2 6.3c-.3.1-.8.1-1.2-.1-.4-.2-.4-.4-.1-.6l13.2-6.3c.3-.1.8-.1 1.2.1.3.2.4.5.1.6zm9.2-4.4l-5.9 2.8c-.3.1-.8.1-1.2-.1-.4-.2-.4-.4-.1-.6l5.9-2.8c.3-.1.8-.1 1.2.1.3.2.4.4.1.6zm-43.3-78.4l-11.8 5.7c-.4.2-1 .2-1.3.1-.3-.2-.3-.4.1-.6l11.8-5.7c.4-.2 1-.2 1.3-.1.3.1.3.4-.1.6zm-4.5-2.2l-11.8 5.7c-.4.2-1 .2-1.3.1-.3-.2-.3-.4.1-.6l11.8-5.7c.4-.2 1-.2 1.3-.1.3.2.3.5-.1.6zm14.3 1.8l-17.1 8.3c-.4.2-1 .2-1.3.1-.3-.2-.3-.4.1-.6l17.1-8.3c.4-.2 1-.2 1.3-.1.3.2.3.5-.1.6zm-6 7.3l-6.5 3.2c-.4.2-1 .2-1.3.1-.3-.2-.3-.4.1-.6l6.5-3.2c.4-.2 1-.2 1.3-.1.3.2.2.5-.1.6zm15-2.9l-17.1 8.3c-.4.2-1 .2-1.3.1-.3-.2-.3-.4.1-.6l17.1-8.3c.4-.2 1-.2 1.3-.1.4.1.3.4-.1.6zm3.5 2.7l-16 7.8c-.4.2-1 .2-1.3.1-.3-.2-.3-.4.1-.6l16-7.8c.4-.2 1-.2 1.3-.1.3.1.3.4-.1.6zm5.6 1.7l-17.1 8.3c-.4.2-1 .2-1.3.1-.3-.2-.3-.4.1-.6l17.1-8.3c.4-.2 1-.2 1.3-.1.3.1.3.4-.1.6zm-2.9 5.7l-9.7 4.7c-.4.2-1 .2-1.3.1-.3-.2-.3-.4.1-.6l9.7-4.7c.4-.2 1-.2 1.3-.1.3.2.3.4-.1.6zm11.9-1.4l-17.1 8.3c-.4.2-1 .2-1.3.1-.3-.2-.3-.4.1-.6l17.1-8.3c.4-.2 1-.2 1.3-.1.3.2.3.4-.1.6zm3.5 2.7l-16 7.8c-.4.2-1 .2-1.3.1-.3-.2-.3-.4.1-.6l16-7.8c.4-.2 1-.2 1.3-.1.3.1.2.4-.1.6zm18 8.7l-16 7.8c-.4.2-1 .2-1.3.1-.3-.2-.3-.4.1-.6l16-7.8c.4-.2 1-.2 1.3-.1.3.2.3.5-.1.6zm-17.8-4.5l-11.8 5.7c-.4.2-1 .2-1.3.1-.3-.2-.3-.4.1-.6l11.8-5.7c.4-.2 1-.2 1.3-.1.4.2.3.5-.1.6zm2.4 3.2L818 308c-.4.2-1 .2-1.3.1-.3-.2-.3-.4.1-.6l9.7-4.7c.4-.2 1-.2 1.3-.1.4.2.3.5-.1.6zm6.7 1.2l-11.8 5.7c-.4.2-1 .2-1.3.1-.3-.2-.3-.4.1-.6l11.8-5.7c.4-.2 1-.2 1.3-.1.3.1.3.4-.1.6zm13.2 2.3l-16 7.8c-.4.2-1 .2-1.3.1-.3-.2-.3-.4.1-.6l16-7.8c.4-.2 1-.2 1.3-.1.4.2.3.4-.1.6zm18.1 8.7l-16 7.8c-.4.2-1 .2-1.3.1-.3-.2-.3-.4.1-.6l16-7.8c.4-.2 1-.2 1.3-.1.3.2.3.5-.1.6zm-17.8-4.5l-11.8 5.7c-.4.2-1 .2-1.3.1-.3-.2-.3-.4.1-.6l11.8-5.7c.4-.2 1-.2 1.3-.1.4.2.3.5-.1.6zm2.4 3.3l-9.7 4.7c-.4.2-1 .2-1.3.1-.3-.2-.3-.4.1-.6l9.7-4.7c.4-.2 1-.2 1.3-.1.4.1.3.4-.1.6zm6.6 1.1l-11.8 5.7c-.4.2-1 .2-1.3.1-.3-.2-.3-.4.1-.6l11.8-5.7c.4-.2 1-.2 1.3-.1.4.1.3.4-.1.6zm15.6 13.1l-6.4 3.1c-.2.1-.5.1-.7 0-.2-.1-.2-.2.1-.3l6.4-3.1c.2-.1.5-.1.7 0 .2.1.1.2-.1.3zm-2.4-1.2l-6.4 3.1c-.2.1-.5.1-.7 0-.2-.1-.2-.2.1-.3l6.4-3.1c.2-.1.5-.1.7 0 .1.1.1.2-.1.3zm7.7 1l-9.2 4.5c-.2.1-.5.1-.7 0-.2-.1-.2-.2.1-.3l9.2-4.5c.2-.1.5-.1.7 0 .1.1.1.2-.1.3zm-3.3 3.9l-3.5 1.7c-.2.1-.5.1-.7 0-.2-.1-.2-.2.1-.3l3.5-1.7c.2-.1.5-.1.7 0 .2.1.2.2-.1.3zm8.2-1.5l-9.2 4.5c-.2.1-.5.1-.7 0-.2-.1-.2-.2.1-.3l9.2-4.5c.2-.1.5-.1.7 0 .1 0 .1.2-.1.3zm1.8 1.4l-8.6 4.2c-.2.1-.5.1-.7 0-.2-.1-.2-.2.1-.3l8.6-4.2c.2-.1.5-.1.7 0 .2.1.1.2-.1.3zm3 .9l-9.2 4.5c-.2.1-.5.1-.7 0-.2-.1-.2-.2.1-.3l9.2-4.5c.2-.1.5-.1.7 0 .2.1.2.2-.1.3zm-1.5 3.1l-5.2 2.5c-.2.1-.5.1-.7 0-.2-.1-.2-.2.1-.3l5.2-2.5c.2-.1.5-.1.7 0 .1.1.1.2-.1.3zm.4-14.3l-6.4 3.1c-.2.1-.5.1-.7 0-.2-.1-.2-.2.1-.3l6.4-3.1c.2-.1.5-.1.7 0 .2.1.2.2-.1.3zm-2.4-1.1l-6.4 3.1c-.2.1-.5.1-.7 0-.2-.1-.2-.2.1-.3l6.4-3.1c.2-.1.5-.1.7 0 .1 0 .1.2-.1.3zm7.7.9l-9.2 4.5c-.2.1-.5.1-.7 0-.2-.1-.2-.2.1-.3l9.2-4.5c.2-.1.5-.1.7 0 .2.1.1.2-.1.3zm-3.2 4l-3.5 1.7c-.2.1-.5.1-.7 0-.2-.1-.2-.2.1-.3l3.5-1.7c.2-.1.5-.1.7 0 .1 0 .1.2-.1.3zm8.1-1.6l-9.2 4.5c-.2.1-.5.1-.7 0-.2-.1-.2-.2.1-.3l9.2-4.5c.2-.1.5-.1.7 0 .1 0 .1.2-.1.3zm1.9 1.4l-8.6 4.2c-.2.1-.5.1-.7 0-.2-.1-.2-.2.1-.3l8.6-4.2c.2-.1.5-.1.7 0 .1.1.1.2-.1.3zm3 .9l-9.2 4.5c-.2.1-.5.1-.7 0-.2-.1-.2-.2.1-.3l9.2-4.5c.2-.1.5-.1.7 0 .1.1.1.2-.1.3zm-1.6 3.1l-5.2 2.5c-.2.1-.5.1-.7 0-.2-.1-.2-.2.1-.3l5.2-2.5c.2-.1.5-.1.7 0 .2.1.1.2-.1.3zm-167.5 37.3l-5.3 2.5c-.3.2-.8.2-1.1 0-.3-.1-.3-.4.1-.5l5.3-2.5c.3-.2.8-.2 1.1 0 .3.1.3.3-.1.5zm-6-.8l-3.1 1.5c-.3.2-.8.2-1.1 0-.3-.1-.3-.4.1-.5l3.1-1.5c.3-.2.8-.2 1.1 0 .3.1.3.3-.1.5zm10.8 2.2l-6.2 3c-.3.2-.8.2-1.1 0-.3-.1-.3-.4.1-.5l6.2-3c.3-.2.8-.2 1.1 0 .2.1.2.3-.1.5zm1.7 2.9l-4 1.9c-.3.2-.8.2-1.1 0-.3-.1-.3-.4.1-.5l4-1.9c.3-.2.8-.2 1.1 0 .2.1.2.3-.1.5zm5.1 1.2l-5.3 2.5c-.3.2-.8.2-1.1 0-.3-.1-.3-.4.1-.5l5.3-2.5c.3-.2.8-.2 1.1 0 .2.1.2.3-.1.5zm3 2.2l-4.4 2.1c-.3.2-.8.2-1.1 0-.3-.1-.3-.4.1-.5l4.4-2.1c.3-.2.8-.2 1.1 0 .2.1.2.4-.1.5zm4.7 1.4l-5.3 2.5c-.3.2-.8.2-1.1 0-.3-.1-.3-.4.1-.5l5.3-2.5c.3-.2.8-.2 1.1 0 .3.2.2.4-.1.5zm5.6 1.1l-7 3.4c-.3.2-.8.2-1.1 0-.3-.1-.3-.4.1-.5l7-3.4c.3-.2.8-.2 1.1 0 .2.1.2.3-.1.5zm2.1 2.6l-5.3 2.5c-.3.2-.8.2-1.1 0-.3-.1-.3-.4.1-.5l5.3-2.5c.3-.2.8-.2 1.1 0 .3.1.2.4-.1.5zm3 2.3l-4.4 2.1c-.3.2-.8.2-1.1 0-.3-.1-.3-.4.1-.5l4.4-2.1c.3-.2.8-.2 1.1 0 .3.1.2.3-.1.5zm15.4 7.3l-4.4 2.1c-.3.2-.8.2-1.1 0-.3-.1-.3-.4.1-.5l4.4-2.1c.3-.2.8-.2 1.1 0 .3.1.3.4-.1.5zm-10.7-5.9l-5.3 2.5c-.3.2-.8.2-1.1 0-.3-.1-.3-.4.1-.5l5.3-2.5c.3-.2.8-.2 1.1 0 .3.1.3.3-.1.5zm6.5.6l-7.9 3.8c-.3.2-.8.2-1.1 0-.3-.1-.3-.4.1-.5l7.9-3.8c.3-.2.8-.2 1.1 0 .2.1.2.3-.1.5zm1.2 3.1l-5.3 2.5c-.3.2-.8.2-1.1 0-.3-.1-.3-.4.1-.5l5.3-2.5c.3-.2.8-.2 1.1 0 .3.1.3.3-.1.5zM663 333.6l-5.3 2.5c-.3.2-.8.2-1.1 0-.3-.1-.3-.4.1-.5l5.3-2.5c.3-.2.8-.2 1.1 0 .3.1.3.3-.1.5zm3 2.2l-4.4 2.1c-.3.2-.8.2-1.1 0-.3-.1-.3-.4.1-.5l4.4-2.1c.3-.2.8-.2 1.1 0 .3.2.3.4-.1.5zm4.8 1.5l-5.3 2.5c-.3.2-.8.2-1.1 0-.3-.1-.3-.4.1-.5l5.3-2.5c.3-.2.8-.2 1.1 0 .2.1.2.3-.1.5zm3 2.2l-4.4 2.1c-.3.2-.8.2-1.1 0-.3-.1-.3-.4.1-.5l4.4-2.1c.3-.2.8-.2 1.1 0 .2.1.2.4-.1.5zm4.7 1.4l-5.3 2.5c-.3.2-.8.2-1.1 0-.3-.1-.3-.4.1-.5l5.3-2.5c.3-.2.8-.2 1.1 0 .2.1.2.4-.1.5zm6.4.6l-7.9 3.8c-.3.2-.8.2-1.1 0-.3-.1-.3-.4.1-.5l7.9-3.8c.3-.2.8-.2 1.1 0 .2.1.2.4-.1.5zm1.3 3.1l-5.3 2.5c-.3.2-.8.2-1.1 0-.3-.1-.3-.4.1-.5l5.3-2.5c.3-.2.8-.2 1.1 0 .2.1.2.4-.1.5zm3 2.3l-4.4 2.1c-.3.2-.8.2-1.1 0-.3-.1-.3-.4.1-.5l4.4-2.1c.3-.2.8-.2 1.1 0 .2.1.2.3-.1.5zm15.4 7.3l-4.4 2.1c-.3.2-.8.2-1.1 0-.3-.1-.3-.4.1-.5l4.4-2.1c.3-.2.8-.2 1.1 0 .2.1.2.4-.1.5zm-10.7-5.9l-5.3 2.5c-.3.2-.8.2-1.1 0-.3-.1-.3-.4.1-.5l5.3-2.5c.3-.2.8-.2 1.1 0 .2.1.2.3-.1.5zm6.4.6l-7.9 3.8c-.3.2-.8.2-1.1 0-.3-.1-.3-.4.1-.5l7.9-3.8c.3-.2.8-.2 1.1 0 .3.1.2.3-.1.5zm1.3 3.1l-5.3 2.5c-.3.2-.8.2-1.1 0-.3-.1-.3-.4.1-.5l5.3-2.5c.3-.2.8-.2 1.1 0 .2.1.2.3-.1.5zm6.8 4l-4.4 2.1c-.3.2-.8.2-1.1 0-.3-.1-.3-.4.1-.5l4.4-2.1c.3-.2.8-.2 1.1 0 .3.2.3.4-.1.5zm15.5 7.4l-4.4 2.1c-.3.2-.8.2-1.1 0-.3-.1-.3-.4.1-.5l4.4-2.1c.3-.2.8-.2 1.1 0 .2.1.2.3-.1.5zm-10.7-5.9l-5.3 2.5c-.3.2-.8.2-1.1 0-.3-.1-.3-.4.1-.5l5.3-2.5c.3-.2.8-.2 1.1 0 .2.1.2.3-.1.5zm6.4.6l-7.9 3.8c-.3.2-.8.2-1.1 0-.3-.1-.3-.4.1-.5l7.9-3.8c.3-.2.8-.2 1.1 0 .2.1.2.3-.1.5zm1.3 3l-5.3 2.5c-.3.2-.8.2-1.1 0-.3-.1-.3-.4.1-.5l5.3-2.5c.3-.2.8-.2 1.1 0 .2.2.2.4-.1.5z" fill="#f9d480"/><path d="M921.5 323.7l-69.2-33.4-111.7 54c-4 2-4 7.7 0 9.7l69.5 33.6 111.5-53.9c4-2.1 4-8-.1-10z" opacity=".38" fill="#823d3b"/><path d="M1092.3 419.3v3.5l-133.4-64.5a19.5 19.5 0 00-17 0L717.7 466.7c-.6.3-1.1.7-1.5 1.1l-1.3-.9v4.6c.1 1.7 1 3.3 2.8 4.2L861.3 545a19.5 19.5 0 0017 0l224.3-108.4c1.8-.9 2.7-2.5 2.8-4.2V428l-13.1-8.7z" fill="#a0a0a0"/><path class="st4" d="M717.7 462.7L942 354.3a19.5 19.5 0 0117 0l143.6 69.4c3.7 1.8 3.7 7.1 0 8.9L878.2 541a19.5 19.5 0 01-17 0l-143.6-69.4c-3.7-1.8-3.7-7.1.1-8.9z"/><path d="M717.7 466.7c-.6.3-1.1.7-1.5 1.1l-1.3-.9v4.6c.1 1.7 1 3.3 2.8 4.2l1.8.9V466l-1.8.7z" fill="#8e8e8e"/><path d="M958.9 354.3a19.5 19.5 0 00-17 0L717.7 462.7c-3.7 1.8-3.7 7.1 0 8.9l1.8.9 242-117-2.6-1.2z" fill="#dbdbdb"/><path class="st13" d="M990.7 429.5l-83.4-40.3-125 60.4h.1l-46.7 22.6 83.4 40.3 125-60.5h-.1z"/><path d="M997.8 432.9l-171.7 82.9 43.6 21.1 171.7-82.9zM963 362.2L914.1 386l83.3 40.3 48.9-23.8zm90.5 43.7l-48.9 23.8 43.4 21.1 49-23.8z" opacity=".4" fill="#dbdbdb"/><path class="st13" d="M732.3 470.5l3.4 1.7 16.5-8-3.5-1.6z"/><path class="st16" d="M990.6 429.4l-55.9-27 .9 10.3-33 1.9 12.8 20.2-18.3 3.3-63.7 4.5-9.4 33.1-25.6-5.6-1.3 14.8-14.9 9.8 36.7 17.8L944 452h-.1z"/><path opacity=".6" fill="#d88000" d="M990.6 429.4l-34.5-16.7-10.6 9.6-5.4 8.3-44.3-5.4-1.9 10.5-27.3-2.7-13.5 42.4-24.9-8-14 5.1-1.3 24.6-22.2 1.7 28.2 13.7L944 452h-.1z"/><path opacity=".9" fill="#648ae0" d="M990.6 429.4l-17.6-8.5-9.1 14.7-35-13.6-20.5 36-33.9-5.4.7 20.3-11.4 12-21.2-4.9-5.4 15.1-34.4-7.2 4 18.7 12.1 5.9L944 452h-.1z"/><g class="st19"><defs><path id="SVGID_1_" class="st19" d="M1027 454.5l-29.5-14.3-91.6 44.3 31 13.5z"/></defs><clipPath id="SVGID_2_"><use xlink:href="#SVGID_1_" overflow="visible"/></clipPath><g clip-path="url(#SVGID_2_)"><path class="st21" d="M899.4 487.1c1.1-.5.3-2.2 1.5-2.7 1.1-.5 1.9 1 3 .4 1.1-.5.6-1.7 1.7-2.3 1.1-.5 1-.9 2.1-1.4 1.1-.5 1.8.9 3 .4 1.1-.5 1.2-.4 2.3-1 1.1-.5.8-1.3 1.9-1.8 1.1-.5 1.5.3 2.7-.3 1.1-.5.9-1.1 2-1.7 1.1-.5 1.4 0 2.5-.6 1.1-.5.3-2.2 1.5-2.7 1.1-.5 1.7.6 2.8 0 1.1-.5.8-1.2 1.9-1.8 1.1-.5 1.5.3 2.7-.3 1.1-.5 1.2-.4 2.3-.9 1.1-.5.7-1.4 1.9-1.9 1.1-.5 1.4.1 2.6-.5 1.1-.5 1-.9 2.1-1.4 1.1-.5 1-.8 2.1-1.3s1.5.2 2.6-.4c1.1-.5 1-.7 2.2-1.3 1.1-.5.9-1.1 2-1.7 1.1-.5 1.1-.7 2.2-1.2s.9-1 2.1-1.5c1.1-.5 1.9 1 3 .5s1.1-.5 2.3-1.1c1.1-.5 1-.8 2.1-1.4 1.1-.5.7-1.4 1.8-2 1.1-.5 1.5.1 2.6-.4s1.3-.2 2.5-.7c1.1-.5 1.2-.4 2.3-.9 1.1-.5.9-1.1 2-1.6s1.2-.5 2.3-1.1c1.1-.5 1.3-.3 2.4-.8 1.1-.5 1-.8 2.1-1.4 1.1-.5.5-1.8 1.7-2.3 1.1-.5 1.2-.3 2.4-.9s1.5.3 2.7-.3c1.1-.5 1.1-.5 2.3-1.1 1.1-.5.7-1.5 1.8-2s1.9 1 3 .4c1.1-.5.3-2.2 1.5-2.7 1.1-.5 1.7.6 2.8 0 1.1-.5.7-1.6 1.8-2.1s1.2-.4 2.3-1"/><path class="st22" d="M903.5 488.6c1.1-.5 1.2-.5 2.3-1 1.1-.5 1-.7 2.2-1.3 1.1-.5 1.4-.1 2.5-.6s.5-1.8 1.6-2.4c1.1-.5.9-.9 2.1-1.5 1.1-.5 1.6.4 2.7-.2 1.1-.5 1.4-.1 2.5-.6s.8-1.2 1.9-1.8c1.1-.5 1-.8 2.1-1.3s1.5.3 2.7-.2c1.1-.5 1-.7 2.2-1.3 1.1-.5.8-1.2 1.9-1.8 1.1-.5 1-.9 2.1-1.4 1.1-.5 1.9 1 3 .4 1.1-.5.9-1 2-1.6 1.1-.5 1.4-.1 2.5-.6s.3-2.2 1.5-2.7c1.1-.5 1.9 1 3 .4 1.1-.5.6-1.7 1.7-2.3 1.1-.5 1-.9 2.1-1.4 1.1-.5 1.8.9 3 .4 1.1-.5 1.2-.4 2.3-1 1.1-.5.8-1.3 1.9-1.8 1.1-.5 1.5.3 2.6-.3 1.1-.5.9-1.1 2-1.7 1.1-.5 1.4 0 2.5-.6 1.1-.5.3-2.2 1.5-2.7 1.1-.5 1.7.6 2.8 0 1.1-.5.8-1.2 1.9-1.8 1.1-.5 1.5.3 2.6-.3 1.1-.5 1.2-.4 2.3-.9 1.1-.5.7-1.4 1.9-1.9 1.1-.5 1.4.1 2.6-.5 1.1-.5 1-.9 2.1-1.4 1.1-.5 1-.8 2.1-1.3s1.5.2 2.6-.4c1.1-.5 1-.7 2.2-1.3s.9-1.1 2-1.7c1.1-.5 1.1-.7 2.2-1.2s.9-1 2.1-1.5c1.1-.5 1.9 1 3 .5s1.1-.5 2.3-1.1c1.1-.5 1-.8 2.1-1.4 1.1-.5.7-1.4 1.8-2 1.1-.5 1.5.1 2.6-.4"/><path d="M907.7 490.2c1.1-.5 1.4.1 2.6-.4 1.1-.5.9-1.1 2-1.6s.8-1.3 1.9-1.9c1.1-.5 1.8.8 2.9.3 1.1-.5 1.1-.7 2.2-1.2s1.1-.6 2.2-1.2c1.1-.5.9-1 2-1.6 1.1-.5 1-.7 2.2-1.3s.8-1.2 2-1.7c1.1-.5 1.4.1 2.6-.4 1.1-.5 1.1-.5 2.3-1 1.1-.5 1-.8 2.2-1.3 1.1-.5 1.4 0 2.5-.6 1.1-.5 1.1-.7 2.2-1.2s1.4.1 2.6-.5c1.1-.5.9-.9 2.1-1.5 1.1-.5 1.2-.5 2.3-1 1.1-.5 1-.7 2.2-1.3 1.1-.5 1.4-.1 2.5-.6s.5-1.8 1.6-2.4c1.1-.5.9-.9 2.1-1.5 1.1-.5 1.6.4 2.7-.2 1.1-.5 1.4-.1 2.5-.6s.8-1.2 1.9-1.7c1.1-.5 1-.8 2.1-1.3s1.5.3 2.7-.2c1.1-.5 1-.7 2.2-1.3 1.1-.5.8-1.2 1.9-1.8 1.1-.5 1-.8 2.1-1.4 1.1-.5 1.9 1 3 .4 1.1-.5.9-1 2-1.6 1.1-.5 1.4 0 2.5-.6 1.1-.5.3-2.2 1.5-2.7 1.1-.5 1.9 1 3 .4 1.1-.5.6-1.7 1.7-2.3 1.1-.5 1-.9 2.1-1.4 1.1-.5 1.8.9 3 .4 1.1-.5 1.2-.4 2.3-1 1.1-.5.8-1.3 1.9-1.8 1.1-.5 1.5.3 2.6-.3 1.1-.5.9-1.1 2-1.7 1.1-.5 1.4 0 2.5-.6 1.1-.5.3-2.2 1.5-2.7 1.1-.5 1.7.6 2.8 0 1.1-.5.8-1.2 1.9-1.8" fill="none" stroke="#648ae0" stroke-miterlimit="10"/><path class="st21" d="M912.4 492.8c1.1-.5.4-2 1.6-2.5 1.1-.5 1.5.2 2.6-.4 1.1-.5 1-.8 2.1-1.4 1.1-.5 1-.8 2.1-1.4 1.1-.5 1-.7 2.2-1.3 1.1-.5 1.1-.6 2.2-1.1 1.1-.5 1.1-.5 2.3-1 1.1-.5 1.7.7 2.8.1s.7-1.3 1.9-1.9c1.1-.5 1.5.2 2.6-.4 1.1-.5 1.2-.5 2.3-1 1.1-.5.9-1 2-1.5s1.3-.2 2.4-.7c1.1-.5 1.1-.5 2.3-1.1 1.1-.5.8-1.2 1.9-1.7 1.1-.5 1.2-.3 2.4-.9 1.1-.5 1.4.1 2.6-.4 1.1-.5.9-1.1 2-1.6s.8-1.3 1.9-1.9c1.1-.5 1.8.8 2.9.3 1.1-.5 1.1-.7 2.2-1.2s1.1-.6 2.2-1.2c1.1-.5.9-1 2-1.6 1.1-.5 1-.7 2.2-1.2 1.1-.5.8-1.2 1.9-1.7 1.1-.5 1.4.1 2.6-.4 1.1-.5 1.1-.5 2.3-1 1.1-.5 1-.8 2.1-1.3s1.4 0 2.5-.5 1.1-.7 2.2-1.2 1.4.1 2.5-.5c1.1-.5.9-.9 2.1-1.5 1.1-.5 1.2-.5 2.3-1 1.1-.5 1-.7 2.2-1.3 1.1-.5 1.4-.1 2.5-.6s.5-1.8 1.6-2.4c1.1-.5.9-.9 2.1-1.5s1.6.4 2.7-.2c1.1-.5 1.4-.1 2.5-.6s.8-1.2 1.9-1.7c1.1-.5 1-.8 2.1-1.3s1.5.3 2.7-.2c1.1-.5 1-.7 2.2-1.3 1.1-.5.8-1.2 1.9-1.8 1.1-.5 1-.8 2.1-1.4"/><path class="st24" d="M916 493.2c1.1-.5 1.4 0 2.5-.6 1.1-.5 1.1-.5 2.2-1.1 1.1-.5.8-1.2 1.9-1.7 1.1-.5 1.6.5 2.7-.1 1.1-.5.6-1.6 1.7-2.1s1.3-.1 2.5-.7c1.1-.5 1-.9 2.1-1.4 1.1-.5 1.7.8 2.9.2 1.1-.5 1-.8 2.1-1.4 1.1-.5 1.3-.1 2.4-.7 1.1-.5 1-.9 2.1-1.4 1.1-.5 1.3-.3 2.4-.8 1.1-.5 1.2-.4 2.3-1 1.1-.5.9-1 2-1.5s.5-1.8 1.6-2.3c1.1-.5 1.9 1.2 3.1.6 1.1-.5.4-2 1.6-2.5 1.1-.5 1.5.2 2.6-.4 1.1-.5 1-.8 2.1-1.4 1.1-.5 1-.8 2.1-1.4 1.1-.5 1-.7 2.2-1.3 1.1-.5 1.1-.6 2.2-1.1 1.1-.5 1.1-.5 2.3-1 1.1-.5 1.7.7 2.8.1 1.1-.5.7-1.3 1.9-1.9 1.1-.5 1.5.2 2.6-.4 1.1-.5 1.2-.5 2.3-1 1.1-.5.9-1 2-1.5s1.3-.2 2.4-.7c1.1-.5 1.1-.5 2.3-1.1 1.1-.5.8-1.2 1.9-1.7 1.1-.5 1.2-.3 2.3-.9 1.1-.5 1.4.1 2.6-.4 1.1-.5.9-1.1 2-1.6s.8-1.3 1.9-1.9c1.1-.5 1.8.8 2.9.3 1.1-.5 1.1-.7 2.2-1.2s1.1-.6 2.2-1.2c1.1-.5.9-1 2-1.6 1.1-.5 1-.7 2.2-1.2 1.1-.5.8-1.2 2-1.7 1.1-.5 1.4.1 2.6-.4 1.1-.5 1.1-.5 2.3-1 1.1-.5 1-.8 2.2-1.3 1.1-.5 1.4 0 2.5-.6"/><path class="st21" d="M920.5 495.4c1.1-.5 1.3-.2 2.4-.7 1.1-.5 1.2-.5 2.3-1 1.1-.5 1.2-.4 2.3-.9 1.1-.5.7-1.4 1.8-1.9s1.1-.7 2.2-1.2 1.9 1.1 3 .5c1.1-.5 1.1-.6 2.2-1.2 1.1-.5.9-1 2-1.6 1.1-.5 1-.7 2.2-1.3 1.1-.5 1.3-.1 2.4-.7 1.1-.5 1.1-.5 2.2-1.1 1.1-.5 1-.7 2.2-1.3 1.1-.5.5-1.8 1.6-2.4s1.7.7 2.8.2c1.1-.5.6-1.6 1.7-2.1s1.2-.4 2.3-1c1.1-.5 1.4 0 2.5-.6 1.1-.5 1.1-.5 2.2-1.1 1.1-.5.8-1.2 1.9-1.7 1.1-.5 1.6.5 2.7-.1 1.1-.5.6-1.6 1.7-2.1s1.3-.1 2.4-.7c1.1-.5 1-.9 2.1-1.4 1.1-.5 1.7.8 2.9.2 1.1-.5 1-.8 2.1-1.4 1.1-.5 1.3-.1 2.4-.7 1.1-.5 1-.9 2.1-1.4 1.1-.5 1.2-.3 2.4-.8 1.1-.5 1.2-.4 2.3-1 1.1-.5.9-.9 2-1.5 1.1-.5.5-1.8 1.6-2.3 1.1-.5 1.9 1.2 3.1.6 1.1-.5.4-2 1.6-2.5 1.1-.5 1.5.2 2.6-.4 1.1-.5 1-.8 2.1-1.4 1.1-.5 1-.8 2.1-1.4 1.1-.5 1-.7 2.1-1.3 1.1-.5 1.1-.6 2.2-1.1 1.1-.5 1.1-.5 2.3-1 1.1-.5 1.7.7 2.8.1 1.1-.5.7-1.3 1.9-1.9 1.1-.5 1.5.2 2.6-.4 1.1-.5 1.2-.5 2.3-1 1.1-.5.9-1 2-1.5s1.3-.2 2.4-.7"/><g class="st19"><path class="st22" d="M925 497.8c1.1-.6 1.2-.5 2.3-1 1.1-.6 1.1-.6 2.3-1.2 1.1-.6 1.4 0 2.6-.6 1.1-.6 1-.9 2.1-1.5s1-.8 2.2-1.4c1.1-.6 1.3-.2 2.5-.8 1.1-.6 1.1-.7 2.2-1.3s.9-1 2.1-1.5c1.1-.6 1.1-.6 2.3-1.2 1.1-.6 1.1-.7 2.2-1.2 1.1-.6 1.6.5 2.8-.1 1.1-.6.7-1.6 1.8-2.1 1.1-.6 1.7.5 2.8 0 1.1-.6.7-1.4 1.9-2 1.1-.6 1.1-.7 2.2-1.2 1.1-.6 1.1-.7 2.2-1.2 1.1-.6 1.3-.2 2.5-.8 1.1-.6 1.2-.5 2.3-1 1.1-.6 1.2-.4 2.4-1 1.1-.6.7-1.4 1.9-1.9 1.1-.6 1.1-.7 2.2-1.2 1.1-.6 1.9 1 3.1.5l2.2-1.2c1.1-.6.9-1.1 2-1.6 1.1-.6 1.1-.7 2.2-1.3 1.1-.6 1.3-.1 2.5-.7 1.1-.6 1.1-.5 2.3-1.1 1.1-.6 1.1-.7 2.2-1.3 1.1-.6.5-1.8 1.7-2.4 1.1-.6 1.7.7 2.9.1 1.1-.6.6-1.6 1.8-2.2 1.1-.6 1.2-.4 2.3-1 1.1-.6 1.4 0 2.5-.6s1.1-.6 2.3-1.1c1.1-.6.8-1.2 2-1.8 1.1-.6 1.6.4 2.8-.1 1.1-.6.6-1.6 1.8-2.1 1.1-.6 1.3-.1 2.5-.7 1.1-.6 1-.9 2.1-1.4 1.1-.6 1.8.7 2.9.2 1.1-.6 1-.8 2.2-1.4 1.1-.6 1.3-.1 2.5-.7 1.1-.6 1-.9 2.1-1.5s1.3-.3 2.4-.8"/></g><path class="st21" d="M929.1 499.2c1.1-.6 1.1-.7 2.2-1.3 1.1-.6 1.7.7 2.9.1 1.1-.6 1.2-.5 2.3-1.1 1.1-.6 1.2-.5 2.3-1.1 1.1-.6.5-1.8 1.7-2.4 1.1-.6 1.1-.5 2.3-1.1 1.1-.6 1.5.2 2.6-.4 1.1-.6 1-.9 2.1-1.5s1.5.2 2.6-.4c1.1-.6.8-1.3 1.9-1.9 1.1-.6 1.3-.1 2.5-.7 1.1-.6 1.3-.3 2.4-.8 1.1-.6.8-1.3 1.9-1.9 1.1-.6 1.1-.7 2.2-1.3 1.1-.6 1.4-.1 2.5-.6 1.1-.6 1.2-.4 2.4-1 1.1-.6 1.2-.5 2.3-1 1.1-.6 1.1-.6 2.3-1.2 1.1-.6 1.4 0 2.5-.6s1-.9 2.1-1.5 1-.8 2.2-1.3c1.1-.6 1.3-.2 2.5-.8 1.1-.6 1.1-.7 2.2-1.2 1.1-.6.9-1 2.1-1.5l2.2-1.2c1.1-.6 1.1-.7 2.2-1.2 1.1-.6 1.6.5 2.8-.1 1.1-.6.7-1.6 1.8-2.1 1.1-.6 1.7.5 2.8 0 1.1-.6.7-1.4 1.9-2 1.1-.6 1.1-.7 2.2-1.2 1.1-.6 1.1-.7 2.2-1.2 1.1-.6 1.3-.2 2.5-.8 1.1-.6 1.2-.5 2.3-1 1.1-.6 1.2-.4 2.4-1 1.1-.6.7-1.4 1.9-1.9 1.1-.6 1.1-.7 2.2-1.2 1.1-.6 1.9 1 3.1.5l2.2-1.2c1.1-.6.9-1.1 2-1.6 1.1-.6 1.1-.7 2.2-1.3 1.1-.6 1.3-.1 2.5-.7 1.1-.6 1.2-.5 2.3-1.1 1.1-.6 1.1-.7 2.2-1.3"/><path class="st24" d="M933.1 500.5c1.1-.5 1.5.1 2.6-.4s1.2-.5 2.3-1c1.1-.6 1.1-.7 2.2-1.2 1.1-.6 1.3-.2 2.4-.8 1.1-.6 1.5.2 2.6-.4 1.1-.6.5-1.9 1.6-2.5 1.1-.6 1.8.7 2.9.2 1.1-.6.4-2.1 1.5-2.7 1.1-.6 1.5.1 2.6-.4 1.1-.6 1.6.5 2.8-.1 1.1-.6.3-2.3 1.4-2.9 1.1-.6 2 1.2 3.1.6s.4-2 1.6-2.6c1.1-.6 1.8.8 2.9.3 1.1-.6.9-1.1 2-1.6 1.1-.6.9-1 2.1-1.5 1.1-.6 1.1-.7 2.2-1.3 1.1-.6 1.7.7 2.9.1 1.1-.6 1.1-.5 2.3-1.1 1.1-.6 1.2-.5 2.3-1.1 1.1-.6.5-1.8 1.7-2.4 1.1-.6 1.1-.5 2.3-1.1 1.1-.5 1.5.2 2.6-.4 1.1-.5 1-.9 2.1-1.5 1.1-.5 1.5.2 2.6-.4 1.1-.6.8-1.3 1.9-1.9 1.1-.6 1.3-.1 2.5-.7 1.1-.6 1.3-.3 2.4-.8 1.1-.6.8-1.3 1.9-1.9 1.1-.6 1.1-.7 2.2-1.3 1.1-.6 1.4-.1 2.5-.6 1.1-.6 1.2-.4 2.4-1 1.1-.6 1.2-.5 2.3-1 1.1-.6 1.1-.6 2.3-1.2 1.1-.6 1.4 0 2.5-.6s1-.9 2.1-1.5 1-.8 2.2-1.3c1.1-.6 1.3-.2 2.4-.8 1.1-.6 1.1-.7 2.2-1.2 1.1-.6.9-1 2.1-1.5 1.1-.6 1.1-.6 2.3-1.2 1.1-.6 1.1-.7 2.2-1.2 1.1-.6 1.6.5 2.8-.1 1.1-.6.7-1.6 1.8-2.1"/></g></g><path d="M1012.7 382.5c.9-.4 1.7-.7 2.7-1L959 354.2a19.5 19.5 0 00-17 0l-2.5 1.2 64.6 31.2 8.6-4.1zm-178.1 134c-1.9.9-4.1.9-6 0l-50.9-24.6c-1.3-.6-1.3-2.5 0-3.2l60.1-29-57-27.5-63.2 30.5c-3.7 1.8-3.7 7.1 0 8.9L861.3 541a19.5 19.5 0 0017 0l63.9-30.9-47.2-22.8-60.4 29.2z" fill="none"/><path d="M1004 386.7l-64.6-31.2-158.6 76.7 57 27.5-60.1 29c-1.3.6-1.3 2.5 0 3.2l50.9 24.6c1.9.9 4.1.9 6 0l60.4-29.2 47.1 22.8 59.3-28.7 99.3-48-96.7-46.7z" opacity=".3" fill="#4a6493"/><path class="st27" d="M771.6 466.7l-17.4 8.4c-.2.1-.7.1-1-.1-.3-.2-.4-.4-.1-.5l17.4-8.4c.2-.1.7-.1 1 .1.3.2.4.4.1.5zm-16.3 4.9l-4.1 2c-.2.1-.7.1-1-.1-.3-.2-.4-.4-.1-.5l4.1-2c.2-.1.7-.1 1 .1.3.2.4.4.1.5z"/><g opacity=".8"><path class="st27" d="M868.6 509.4l-20.3 9.8c-.3.1-.8.1-1.2-.1-.4-.2-.4-.4-.1-.6l20.3-9.8c.3-.1.8-.1 1.2.1.3.2.4.5.1.6zm-20.4 5.1l-4.8 2.3c-.3.1-.8.1-1.2-.1-.4-.2-.4-.4-.1-.6l4.8-2.3c.3-.1.8-.1 1.2.1.3.2.4.4.1.6zm32.1-10.7l-8.7 4.2c-.3.1-.8.1-1.2-.1-.4-.2-.4-.4-.1-.6l8.7-4.2c.3-.1.8-.1 1.2.1.3.2.3.5.1.6z"/><path class="st29" d="M869.6 513.7l-12.5 6c-.3.1-.8.1-1.2-.1-.4-.2-.4-.4-.1-.6l12.5-6c.3-.1.8-.1 1.2.1.4.2.4.5.1.6z"/><path class="st27" d="M881.3 508.1l-8.7 4.2c-.3.1-.8.1-1.2-.1-.4-.2-.4-.4-.1-.6l8.7-4.2c.3-.1.8-.1 1.2.1.3.2.3.5.1.6z"/><path class="st29" d="M904.5 496.9l-20.3 9.8c-.3.1-.8.1-1.2-.1-.4-.2-.4-.4-.1-.6l20.3-9.8c.3-.1.8-.1 1.2.1.4.2.4.5.1.6z"/><path class="st27" d="M866.8 519.9l-4.8 2.3c-.3.1-.8.1-1.2-.1-.4-.2-.4-.4-.1-.6l4.8-2.3c.3-.1.8-.1 1.2.1.3.2.3.4.1.6zm23.2-11.2l-20.3 9.8c-.3.1-.8.1-1.2-.1-.4-.2-.4-.4-.1-.6l20.3-9.8c.3-.1.8-.1 1.2.1.4.2.4.4.1.6zm19.4-9.4l-16.4 7.9c-.3.1-.8.1-1.2-.1-.4-.2-.4-.4-.1-.6l16.4-7.9c.3-.1.8-.1 1.2.1.3.2.4.5.1.6z"/><path class="st29" d="M883.3 516.7l-12.5 6c-.3.1-.8.1-1.2-.1-.4-.2-.4-.4-.1-.6l12.5-6c.3-.1.8-.1 1.2.1.3.2.4.5.1.6z"/><path class="st27" d="M906.2 505.7l-19.9 9.6c-.3.1-.8.1-1.2-.1-.4-.2-.4-.4-.1-.6l19.9-9.6c.3-.1.8-.1 1.2.1.3.2.3.4.1.6z"/><path class="st29" d="M914.3 501.8l-5.2 2.5c-.3.1-.8.1-1.2-.1-.4-.2-.4-.4-.1-.6l5.2-2.5c.3-.1.8-.1 1.2.1.3.2.4.4.1.6z"/><path class="st27" d="M879.6 523.2l-11.8 5.7c-.3.1-.8.1-1.2-.1-.4-.2-.4-.4-.1-.6l11.8-5.7c.3-.1.8-.1 1.2.1.3.2.4.5.1.6zm16.3-7.8l-13.3 6.4c-.3.1-.8.1-1.2-.1-.4-.2-.4-.4-.1-.6l13.3-6.4c.3-.1.8-.1 1.2.1.3.2.4.5.1.6z"/><path class="st29" d="M905.2 510.9l-5.9 2.9c-.3.1-.8.1-1.2-.1-.4-.2-.4-.4-.1-.6l5.9-2.9c.3-.1.8-.1 1.2.1.4.2.4.5.1.6z"/></g><path class="st30" d="M941.6 199.2l-78.4-37.8c-3.6-1.7-7.8-1.7-11.4 0l-85.3 41.2c-.2.1-.3.2-.4.2l-1.5-1.2v2.3c0 1.2.6 2.4 1.9 3.1l85.3 41.2c3.6 1.7 7.8 1.7 11.4 0l85.3-41.3c1.1-.5 1.8-1.6 1.9-2.6v-2.6l-8.8-2.5z"/><path class="st31" d="M766.5 204.7l85.3 41.2c3.6 1.7 7.8 1.7 11.4 0l85.3-41.3c2.6-1.2 2.6-4.9 0-6.1l-85.3-41.2c-3.6-1.7-7.8-1.7-11.4 0l-85.3 41.2a3.44 3.44 0 000 6.2z"/><path d="M766.5 202.6c-.2.1-.3.2-.4.2l-1.5-1.2v2.3c0 1.2.6 2.4 1.9 3.1l2.5 1.2v-6.8l-2.5 1.2z" fill="#bfbfbf"/><path class="st4" d="M866.4 158.8l-3.2-1.5c-3.6-1.7-7.8-1.7-11.4 0l-60.2 29.1-25.1 12.1c-2.6 1.2-2.6 4.9 0 6.1l2.2 1.1.3.1 97.4-47z"/><path class="st33" d="M903 205.2l26.2-12.6-26.3-12.7-26.1 12.7zm-1.9-26.2l-32.3-15.6-26.2 12.7 32.3 15.6zm-121.8 27.7l76.5 37 61.5-29.8-76.5-36.9z"/><path fill="#adadad" d="M931.1 193.5l-26.2 12.6 14.3 6.9 26.1-12.6z"/><path class="st31" d="M811.9 201.1l-15.8 7.6c-.2.1-.6.1-.9-.1-.3-.1-.3-.3-.1-.4l15.8-7.6c.2-.1.6-.1.9.1.2.1.3.3.1.4zM796 205l-3.7 1.8c-.2.1-.6.1-.9-.1-.3-.1-.3-.3-.1-.4l3.7-1.8c.2-.1.6-.1.9.1.3.1.3.3.1.4zm24.9-8.2l-6.7 3.2c-.2.1-.6.1-.9-.1-.3-.1-.3-.3-.1-.4l6.7-3.2c.2-.1.6-.1.9.1.3.1.3.3.1.4zm-8.2 7.7l-9.8 4.7c-.2.1-.6.1-.9-.1-.3-.1-.3-.3-.1-.4l9.8-4.7c.2-.1.6-.1.9.1.2.1.3.3.1.4zm9-4.4l-6.7 3.2c-.2.1-.6.1-.9-.1-.3-.1-.3-.3-.1-.4l6.7-3.2c.2-.1.6-.1.9.1.3.1.3.3.1.4zm18.1-8.7L824 199c-.2.1-.6.1-.9-.1-.3-.1-.3-.3-.1-.4l15.8-7.6c.2-.1.6-.1.9.1.3.1.3.3.1.4zm-29.4 17.9l-3.7 1.8c-.2.1-.6.1-.9-.1-.3-.1-.3-.3-.1-.4l3.7-1.8c.2-.1.6-.1.9.1.3 0 .3.2.1.4zm18.1-8.8l-15.8 7.6c-.2.1-.6.1-.9-.1-.3-.1-.3-.3-.1-.4l15.8-7.6c.2-.1.6-.1.9.1.3.1.3.3.1.4zm15.1-7.2l-12.8 6.2c-.2.1-.6.1-.9-.1-.3-.1-.3-.3-.1-.4l12.8-6.2c.2-.1.6-.1.9.1.3.1.3.3.1.4zm-20.3 13.5l-9.8 4.7c-.2.1-.6.1-.9-.1-.3-.1-.3-.3-.1-.4l9.8-4.7c.2-.1.6-.1.9.1.2.1.3.3.1.4zm17.8-8.6l-15.5 7.5c-.2.1-.6.1-.9-.1-.3-.1-.3-.3-.1-.4l15.5-7.5c.2-.1.6-.1.9.1.2.1.3.3.1.4zm6.3-3l-4 1.9c-.2.1-.6.1-.9-.1-.3-.1-.3-.3-.1-.4l4-1.9c.2-.1.6-.1.9.1.3 0 .3.2.1.4zm-27 16.7l-9.1 4.4c-.2.1-.6.1-.9-.1-.3-.1-.3-.3-.1-.4l9.1-4.4c.2-.1.6-.1.9.1.3.1.4.3.1.4zm12.7-6.1l-10.4 5c-.2.1-.6.1-.9-.1-.3-.1-.3-.3-.1-.4l10.4-5c.2-.1.6-.1.9.1.3.1.3.3.1.4zm7.2-3.5l-4.6 2.2c-.2.1-.6.1-.9-.1-.3-.1-.3-.3-.1-.4l4.6-2.2c.2-.1.6-.1.9.1.3.1.4.3.1.4zm-12.5 9.7l-9.8 4.7c-.2.1-.6.1-.9-.1-.3-.1-.3-.3-.1-.4l9.8-4.7c.2-.1.6-.1.9.1.3.1.4.3.1.4zm9.1-4.4l-6.7 3.2c-.2.1-.6.1-.9-.1-.3-.1-.3-.3-.1-.4l6.7-3.2c.2-.1.6-.1.9.1.3.1.3.3.1.4zm18.1-8.7l-15.8 7.6c-.2.1-.6.1-.9-.1-.3-.1-.3-.3-.1-.4l15.8-7.6c.2-.1.6-.1.9.1.3.1.3.3.1.4zm-27.6 17l-5.5 2.7c-.2.1-.6.1-.9-.1-.3-.1-.3-.3-.1-.4l5.5-2.7c.2-.1.6-.1.9.1.3.1.3.3.1.4zm16.3-7.8l-14 6.7c-.2.1-.6.1-.9-.1-.3-.1-.3-.3-.1-.4l14-6.7c.2-.1.6-.1.9.1.3.1.3.3.1.4zm15.1-7.3L846 207c-.2.1-.6.1-.9-.1-.3-.1-.3-.3-.1-.4l12.8-6.2c.2-.1.6-.1.9.1.3.1.3.3.1.4zm-20.3 13.5l-9.8 4.7c-.2.1-.6.1-.9-.1-.3-.1-.3-.3-.1-.4l9.8-4.7c.2-.1.6-.1.9.1.2.1.3.3.1.4zm20.8-10l-18.5 8.9c-.2.1-.6.1-.9-.1-.3-.1-.3-.3-.1-.4l18.5-8.9c.2-.1.6-.1.9.1.3.1.3.3.1.4zm3.3-1.6l-1 .5c-.2.1-.6.1-.9-.1-.3-.1-.3-.3-.1-.4l1-.5c.2-.1.6-.1.9.1.3.1.3.3.1.4zm-27 16.7l-9.1 4.4c-.2.1-.6.1-.9-.1-.3-.1-.3-.3-.1-.4l9.1-4.4c.2-.1.6-.1.9.1.3.1.3.3.1.4zm9.2 10.5l-3.1 1.5c-.2.1-.6.1-.9-.1-.3-.1-.3-.3-.1-.4l3.1-1.5c.2-.1.6-.1.9.1.3.1.3.3.1.4zm3.8 1.9l-3.1 1.5c-.2.1-.6.1-.9-.1-.3-.1-.3-.3-.1-.4l3.1-1.5c.2-.1.6-.1.9.1.3.1.3.3.1.4zm-.3-18.5l-10.4 5c-.2.1-.6.1-.9-.1-.3-.1-.3-.3-.1-.4l10.4-5c.2-.1.6-.1.9.1.3.1.3.3.1.4zm13.3-6.4l-10.7 5.1c-.2.1-.6.1-.9-.1-.3-.1-.3-.3-.1-.4l10.7-5.1c.2-.1.6-.1.9.1.2.1.3.3.1.4zM843 219.6l-9.8 4.7c-.2.1-.6.1-.9-.1-.3-.1-.3-.3-.1-.4l9.8-4.7c.2-.1.6-.1.9.1.3.1.4.3.1.4zm9.1-4.4l-6.7 3.2c-.2.1-.6.1-.9-.1-.3-.1-.3-.3-.1-.4l6.7-3.2c.2-.1.6-.1.9.1.3.1.3.3.1.4zm18.1-8.7l-15.8 7.6c-.2.1-.6.1-.9-.1-.3-.1-.3-.3-.1-.4l15.8-7.6c.2-.1.6-.1.9.1.3.1.3.3.1.4zm-27.6 17l-2.5 1.2c-.2.1-.6.1-.9-.1-.3-.1-.3-.3-.1-.4l2.5-1.2c.2-.1.6-.1.9.1.3.1.3.3.1.4zm16.3-7.9l-14 6.7c-.2.1-.6.1-.9-.1-.3-.1-.3-.3-.1-.4l14-6.7c.2-.1.6-.1.9.1.3.1.3.3.1.4zm15.1-7.2l-12.8 6.2c-.2.1-.6.1-.9-.1-.3-.1-.3-.3-.1-.4l12.8-6.2c.2-.1.6-.1.9.1.3.1.3.3.1.4zm-20.3 13.5l-6.7 3.2c-.2.1-.6.1-.9-.1-.3-.1-.3-.3-.1-.4l6.7-3.2c.2-.1.6-.1.9.1.2.1.3.3.1.4zm14.7-7.1l-12.5 6c-.2.1-.6.1-.9-.1-.3-.1-.3-.3-.1-.4l12.5-6c.2-.1.6-.1.9.1.3.1.4.3.1.4zm9.4-4.5l-7 3.4c-.2.1-.6.1-.9-.1-.3-.1-.3-.3-.1-.4l7-3.4c.2-.1.6-.1.9.1.3 0 .3.2.1.4zm-18.2-34.4l-4.4 2.2c-.1.1-.4.1-.6 0-.2-.1-.2-.2-.1-.3l4.4-2.2c.1-.1.4-.1.6 0 .2.1.2.2.1.3zm-2.5-1.2l-4.4 2.2c-.1.1-.4.1-.6 0-.2-.1-.2-.2-.1-.3l4.4-2.2c.1-.1.4-.1.6 0 .2.1.2.2.1.3zm7 1.5l-6.4 3.1c-.1.1-.4.1-.6 0-.2-.1-.2-.2-.1-.3l6.4-3.1c.1-.1.4-.1.6 0 .2.1.2.2.1.3zm-1.5 3.1l-2.5 1.2c-.1.1-.4.1-.6 0-.2-.1-.2-.2-.1-.3l2.5-1.2c.1-.1.4-.1.6 0 .2.1.3.3.1.3zm6.5-.6l-6.4 3.1c-.1.1-.4.1-.6 0-.2-.1-.2-.2-.1-.3l6.4-3.1c.1-.1.4-.1.6 0 .2 0 .3.2.1.3zm2.1 1.4l-6 2.9c-.1.1-.4.1-.6 0-.2-.1-.2-.2-.1-.3l6-2.9c.1-.1.4-.1.6 0 .2.1.3.2.1.3zm2.9 1l-6.4 3.1c-.1.1-.4.1-.6 0-.2-.1-.2-.2-.1-.3l6.4-3.1c.1-.1.4-.1.6 0 .3.1.3.3.1.3zm-.2 2.6l-3.6 1.8c-.1.1-.4.1-.6 0-.2-.1-.2-.2-.1-.3l3.6-1.8c.1-.1.4-.1.6 0 .2.1.2.3.1.3zm2.5-11l-6.2 3c-.1.1-.4.1-.6 0-.2-.1-.2-.2-.1-.3l6.2-3c.1-.1.4-.1.6 0 .2.1.2.2.1.3zm-9.2-3l-4.6 2.3c-.1.1-.4.1-.6 0-.2-.1-.2-.2-.1-.3l4.6-2.3c.1-.1.4-.1.6 0 .3.1.3.3.1.3zm1.8 1.7l-3.8 1.9c-.1.1-.4.1-.6 0-.2-.1-.2-.2-.1-.3l3.8-1.9c.1-.1.4-.1.6 0 .2.1.2.2.1.3zm3.3.8l-4.6 2.3c-.1.1-.4.1-.6 0-.2-.1-.2-.2-.1-.3l4.6-2.3c.1-.1.4-.1.6 0 .2.1.2.2.1.3zm6.6 1.7l-6.2 3c-.1.1-.4.1-.6 0-.2-.1-.2-.2-.1-.3l6.2-3c.1-.1.4-.1.6 0 .2.1.2.2.1.3zm.9 2l-4.6 2.3c-.1.1-.4.1-.6 0-.2-.1-.2-.2-.1-.3l4.6-2.3c.1-.1.4-.1.6 0 .2.1.2.3.1.3zm1.7 1.7l-3.8 1.9c-.1.1-.4.1-.6 0-.2-.1-.2-.2-.1-.3l3.8-1.9c.1-.1.4-.1.6 0 .2.1.3.2.1.3zm3.3.8l-4.6 2.3c-.1.1-.4.1-.6 0-.2-.1-.2-.2-.1-.3l4.6-2.3c.1-.1.4-.1.6 0 .2.1.3.2.1.3zm-5.2 7.5l-4.4 2.2c-.1.1-.4.1-.6 0-.2-.1-.2-.2-.1-.3l4.4-2.2c.1-.1.4-.1.6 0 .2.1.2.2.1.3zm-2.5-1.3l-4.4 2.2c-.1.1-.4.1-.6 0-.2-.1-.2-.2-.1-.3l4.4-2.2c.1-.1.4-.1.6 0 .2.1.2.3.1.3zm10.1-4.9l-4.6 2.3c-.1.1-.4.1-.6 0-.2-.1-.2-.2-.1-.3l4.6-2.3c.1-.1.4-.1.6 0 .2.1.3.2.1.3zm1.7 1.6l-3.8 1.9c-.1.1-.4.1-.6 0-.2-.1-.2-.2-.1-.3l3.8-1.9c.1-.1.4-.1.6 0 .3.1.3.3.1.3z"/><path class="st33" d="M779.3 206.7l39.8-19.2-2.4-1.2-39.8 19.3zm60.9-31.8l2.5 1.2 14-6.8-2.4-1.2z"/><path d="M1115.6 326.5v3.6L900.3 226c-6.5-3.1-14.1-3.1-20.6 0l-141.6 68.4-3.7-1.8s1.4 6.9 2.9 7.5l223.5 108c6.5 3.1 14.1 3.1 20.6 0l142.4-68.8c1.9-.9 2.9-2.7 2.9-4.5v-2.9l-11.1-5.4z" fill="#3764a5"/><path d="M737.2 297.2l223.5 108c6.5 3.1 14.1 3.1 20.6 0l142.4-68.8c3.8-1.8 3.8-7.3 0-9.1l-223.5-108c-6.5-3.1-14.1-3.1-20.6 0l-142.4 68.8c-3.8 1.8-3.8 7.3 0 9.1z" fill="#5d89d8"/><path d="M900.3 219.2c-6.5-3.1-14.1-3.1-20.6 0L737.3 288c-3.8 1.8-3.8 7.3 0 9.1l10.2 4.9 162.2-78.4-9.4-4.4z" opacity=".5" fill="#3764a5"/><path d="M1011.5 316.7l-71.1 34.4-3.3-1.6-36.8 17.8 3.3 1.5 65.9 31.9 107.9-52.2zm38.5-18.6l-34.5 16.6 65.9 31.9 34.4-16.7zm-22.2 7.5l-15.6 7.6 3.3 1.5 15.5-7.5zm-154.1-55.5l-107.9 52.1 128.3 62.2 108-52.1zm-71.1 34.3l-3.3-1.5-36.7 17.7 3.2 1.6zm109.5-52.9l-34.4 16.6 128.4 62.2 34.4-16.6z" fill="#73a2eb"/><path fill="#73a7eb" d="M893.3 240.6L890 239l-15.5 7.5 3.2 1.6z"/><g class="st40"><path class="st4" d="M990.8 287.3l-6.6 3.2c-.4.2-1 .2-1.4 0-.4-.2-.3-.5.1-.7l6.6-3.2c.4-.2 1-.2 1.4 0 .3.2.3.5-.1.7zm-7.5-1l-3.9 1.9c-.4.2-1 .2-1.4 0-.4-.2-.3-.5.1-.7l3.9-1.9c.4-.2 1-.2 1.4 0 .3.2.3.5-.1.7zm13.4 2.8l-7.7 3.7c-.4.2-1 .2-1.4 0-.4-.2-.3-.5.1-.7l7.7-3.7c.4-.2 1-.2 1.4 0 .3.2.3.5-.1.7zm2.1 3.6l-5 2.4c-.4.2-1 .2-1.4 0-.4-.2-.3-.5.1-.7l5-2.4c.4-.2 1-.2 1.4 0 .4.2.3.5-.1.7zm-94.9-46.8l-6.6 3.2c-.4.2-1 .2-1.4 0-.4-.2-.3-.5.1-.7l6.6-3.2c.4-.2 1-.2 1.4 0 .3.2.3.5-.1.7zm3.8 2.8l-5.6 2.7c-.4.2-1 .2-1.4 0-.4-.2-.3-.5.1-.7l5.6-2.7c.4-.2 1-.2 1.4 0 .3.2.3.5-.1.7zm5.9 1.8l-6.6 3.2c-.4.2-1 .2-1.4 0-.4-.2-.3-.5.1-.7l6.6-3.2c.4-.2 1-.2 1.4 0 .3.2.3.5-.1.7zm3.7 2.8l-5.6 2.7c-.4.2-1 .2-1.4 0-.4-.2-.3-.5.1-.7l5.6-2.7c.4-.2 1-.2 1.4 0 .3.3.3.5-.1.7zm5.9 1.8l-6.6 3.2c-.4.2-1 .2-1.4 0-.4-.2-.3-.5.1-.7l6.6-3.2c.4-.2 1-.2 1.4 0 .4.2.3.5-.1.7zm8.1.8l-9.9 4.7c-.4.2-1 .2-1.4 0-.4-.2-.3-.5.1-.7l9.9-4.7c.4-.2 1-.2 1.4 0 .3.2.3.5-.1.7zm1.6 3.8l-6.6 3.2c-.4.2-1 .2-1.4 0-.4-.2-.3-.5.1-.7l6.6-3.2c.4-.2 1-.2 1.4 0 .3.2.3.5-.1.7zm3.7 2.8l-5.6 2.7c-.4.2-1 .2-1.4 0-.4-.2-.3-.5.1-.7l5.6-2.7c.4-.2 1-.2 1.4 0 .4.3.3.5-.1.7zm19.3 9.2l-5.6 2.7c-.4.2-1 .2-1.4 0-.4-.2-.3-.5.1-.7l5.6-2.7c.4-.2 1-.2 1.4 0 .4.3.3.5-.1.7zm-13.4-7.4l-6.6 3.2c-.4.2-1 .2-1.4 0-.4-.2-.3-.5.1-.7l6.6-3.2c.4-.2 1-.2 1.4 0 .4.2.3.5-.1.7zm8.1.8l-9.9 4.7c-.4.2-1 .2-1.4 0-.4-.2-.3-.5.1-.7l9.9-4.7c.4-.2 1-.2 1.4 0 .3.2.3.5-.1.7zm1.6 3.8l-6.6 3.2c-.4.2-1 .2-1.4 0-.4-.2-.3-.5.1-.7l6.6-3.2c.4-.2 1-.2 1.4 0 .3.2.3.5-.1.7zm8.6 5.1l-5.6 2.7c-.4.2-1 .2-1.4 0-.4-.2-.3-.5.1-.7l5.6-2.7c.4-.2 1-.2 1.4 0 .3.3.3.5-.1.7zm19.3 9.2l-5.6 2.7c-.4.2-1 .2-1.4 0-.4-.2-.3-.5.1-.7l5.6-2.7c.4-.2 1-.2 1.4 0 .3.3.3.5-.1.7zm-13.4-7.4L960 279c-.4.2-1 .2-1.4 0-.4-.2-.3-.5.1-.7l6.6-3.2c.4-.2 1-.2 1.4 0 .4.2.4.5 0 .7zm8 .8l-9.9 4.7c-.4.2-1 .2-1.4 0-.4-.2-.3-.5.1-.7l9.9-4.7c.4-.2 1-.2 1.4 0 .3.2.3.5-.1.7zm1.6 3.8l-6.6 3.2c-.4.2-1 .2-1.4 0-.4-.2-.3-.5.1-.7l6.6-3.2c.4-.2 1-.2 1.4 0 .3.2.3.5-.1.7z"/></g><g class="st40"><path class="st16" d="M1034.1 313l-5.3 2.6c-.3.2-.8.2-1.1 0-.3-.1-.3-.4 0-.5l5.3-2.6c.3-.2.8-.2 1.1 0 .3.1.3.3 0 .5zm3.1 2.3l-4.4 2.2c-.3.2-.8.2-1.1 0-.3-.1-.3-.4 0-.5l4.4-2.2c.3-.2.8-.2 1.1 0 .3.1.3.4 0 .5zm4.8 1.5l-5.3 2.6c-.3.2-.8.2-1.1 0-.3-.1-.3-.4 0-.5l5.3-2.6c.3-.2.8-.2 1.1 0 .3.1.3.4 0 .5zm3.1 2.4l-4.4 2.2c-.3.2-.8.2-1.1 0-.3-.1-.3-.4 0-.5l4.4-2.2c.3-.2.8-.2 1.1 0 .4.1.3.3 0 .5zm4.8 1.5l-5.3 2.6c-.3.2-.8.2-1.1 0-.3-.1-.3-.4 0-.5l5.3-2.6c.3-.2.8-.2 1.1 0 .4.1.4.3 0 .5zm6.6.6l-7.8 3.8c-.3.2-.8.2-1.1 0-.3-.1-.3-.4 0-.5l7.8-3.8c.3-.2.8-.2 1.1 0 .3.1.3.4 0 .5zm1.4 3.2l-5.3 2.6c-.3.2-.8.2-1.1 0-.3-.1-.3-.4 0-.5l5.3-2.6c.3-.2.8-.2 1.1 0 .3.1.3.3 0 .5zm3.1 2.3l-4.4 2.2c-.3.2-.8.2-1.1 0-.3-.1-.3-.4 0-.5l4.4-2.2c.3-.2.8-.2 1.1 0 .3.1.3.4 0 .5zm15.9 7.7l-4.4 2.2c-.3.2-.8.2-1.1 0-.3-.1-.3-.4 0-.5l4.4-2.2c.3-.2.8-.2 1.1 0 .3.1.3.4 0 .5zm-11.1-6.2l-5.3 2.6c-.3.2-.8.2-1.1 0-.3-.1-.3-.4 0-.5l5.3-2.6c.3-.2.8-.2 1.1 0 .4.1.3.4 0 .5zm6.6.7l-7.8 3.8c-.3.2-.8.2-1.1 0-.3-.1-.3-.4 0-.5l7.8-3.8c.3-.2.8-.2 1.1 0 .3.1.3.4 0 .5zm1.4 3.2l-5.3 2.6c-.3.2-.8.2-1.1 0-.3-.1-.3-.4 0-.5l5.3-2.6c.3-.2.8-.2 1.1 0 .3.1.3.3 0 .5zm7.1 4.2l-4.4 2.2c-.3.2-.8.2-1.1 0-.3-.1-.3-.4 0-.5l4.4-2.2c.3-.2.8-.2 1.1 0 .3.1.3.4 0 .5z"/><path class="st4" d="M1057.5 309.4l-5.3 2.6c-.3.2-.8.2-1.1 0-.3-.1-.3-.4 0-.5l5.3-2.6c.3-.2.8-.2 1.1 0 .3.1.3.3 0 .5zm-6.1-.9l-3.1 1.5c-.3.2-.8.2-1.1 0-.3-.1-.3-.4 0-.5l3.1-1.5c.3-.2.8-.2 1.1 0 .3.1.3.4 0 .5zm10.9 2.4l-6.1 3c-.3.2-.8.2-1.1 0-.3-.1-.3-.4 0-.5l6.1-3c.3-.2.8-.2 1.1 0 .4.1.3.3 0 .5zm1.9 2.9l-4 1.9c-.3.2-.8.2-1.1 0-.3-.1-.3-.4 0-.5l4-1.9c.3-.2.8-.2 1.1 0 .3.2.3.4 0 .5zm5.2 1.3l-5.3 2.6c-.3.2-.8.2-1.1 0-.3-.1-.3-.4 0-.5l5.3-2.6c.3-.2.8-.2 1.1 0 .4.1.3.4 0 .5zm3.1 2.4l-4.4 2.2c-.3.2-.8.2-1.1 0-.3-.1-.3-.4 0-.5l4.4-2.2c.3-.2.8-.2 1.1 0 .4.1.3.3 0 .5zm4.9 1.5l-5.3 2.6c-.3.2-.8.2-1.1 0-.3-.1-.3-.4 0-.5l5.3-2.6c.3-.2.8-.2 1.1 0 .3.1.3.3 0 .5zm5.6 1.1l-7 3.4c-.3.2-.8.2-1.1 0-.3-.1-.3-.4 0-.5l7-3.4c.3-.2.8-.2 1.1 0 .4.1.4.3 0 .5zm2.3 2.7l-5.3 2.6c-.3.2-.8.2-1.1 0-.3-.1-.3-.4 0-.5l5.3-2.6c.3-.2.8-.2 1.1 0 .3.1.3.4 0 .5zm3.1 2.3l-4.4 2.2c-.3.2-.8.2-1.1 0-.3-.1-.3-.4 0-.5l4.4-2.2c.3-.2.8-.2 1.1 0 .3.2.3.4 0 .5zm4.8 1.5l-5.3 2.6c-.3.2-.8.2-1.1 0-.3-.1-.3-.4 0-.5l5.3-2.6c.3-.2.8-.2 1.1 0 .4.2.4.4 0 .5zm6.6.7l-7.8 3.8c-.3.2-.8.2-1.1 0-.3-.1-.3-.4 0-.5l7.8-3.8c.3-.2.8-.2 1.1 0 .3.1.3.4 0 .5zm1.4 3.2l-5.3 2.6c-.3.2-.8.2-1.1 0-.3-.1-.3-.4 0-.5l5.3-2.6c.3-.2.8-.2 1.1 0 .3.1.3.3 0 .5zm-52.5-24.5l-4.4 2.2c-.3.2-.8.2-1.1 0-.3-.1-.3-.4 0-.5l4.4-2.2c.3-.2.8-.2 1.1 0 .3.1.3.3 0 .5z"/><path class="st16" d="M1085.7 337.9l-5.3 2.6c-.3.2-.8.2-1.1 0-.3-.1-.3-.4 0-.5l5.3-2.6c.3-.2.8-.2 1.1 0 .3.1.3.4 0 .5z"/></g><g class="st40"><path class="st16" d="M991.6 333.7l-5.3 2.6c-.3.2-.8.2-1.1 0-.3-.1-.3-.4 0-.5l5.3-2.6c.3-.2.8-.2 1.1 0 .3.1.3.4 0 .5zm3.1 2.4l-4.4 2.2c-.3.2-.8.2-1.1 0-.3-.1-.3-.4 0-.5l4.4-2.2c.3-.2.8-.2 1.1 0 .3.1.3.3 0 .5zm4.8 1.5l-5.3 2.6c-.3.2-.8.2-1.1 0-.3-.1-.3-.4 0-.5l5.3-2.6c.3-.2.8-.2 1.1 0 .4.1.3.3 0 .5zm3.2 2.3l-4.4 2.2c-.3.2-.8.2-1.1 0-.3-.1-.3-.4 0-.5l4.4-2.2c.3-.2.8-.2 1.1 0 .3.1.3.4 0 .5zm4.8 1.5l-5.3 2.6c-.3.2-.8.2-1.1 0-.3-.1-.3-.4 0-.5l5.3-2.6c.3-.2.8-.2 1.1 0 .3.1.3.4 0 .5zm6.5.7l-7.8 3.8c-.3.2-.8.2-1.1 0-.3-.1-.3-.4 0-.5l7.8-3.8c.3-.2.8-.2 1.1 0 .3.1.3.3 0 .5z"/><path class="st4" d="M1015.4 345.2l-5.3 2.6c-.3.2-.8.2-1.1 0-.3-.1-.3-.4 0-.5l5.3-2.6c.3-.2.8-.2 1.1 0 .3.1.3.4 0 .5zm3.1 2.4l-4.4 2.2c-.3.2-.8.2-1.1 0-.3-.1-.3-.4 0-.5l4.4-2.2c.3-.2.8-.2 1.1 0 .4.1.3.3 0 .5zm15.9 7.6l-4.4 2.2c-.3.2-.8.2-1.1 0-.3-.1-.3-.4 0-.5l4.4-2.2c.3-.2.8-.2 1.1 0 .3.2.3.4 0 .5zm-11-6.1l-5.3 2.6c-.3.2-.8.2-1.1 0-.3-.1-.3-.4 0-.5l5.3-2.6c.3-.2.8-.2 1.1 0 .3.1.3.3 0 .5zm6.5.6l-7.8 3.8c-.3.2-.8.2-1.1 0-.3-.1-.3-.4 0-.5l7.8-3.8c.3-.2.8-.2 1.1 0 .3.2.3.4 0 .5zm1.4 3.2l-5.3 2.6c-.3.2-.8.2-1.1 0-.3-.1-.3-.4 0-.5l5.3-2.6c.3-.2.8-.2 1.1 0 .3.1.3.4 0 .5zm7.1 4.3l-4.4 2.2c-.3.2-.8.2-1.1 0-.3-.1-.3-.4 0-.5l4.4-2.2c.3-.2.8-.2 1.1 0 .3.1.3.3 0 .5zm-23.4-27.1l-5.3 2.6c-.3.2-.8.2-1.1 0-.3-.1-.3-.4 0-.5l5.3-2.6c.3-.2.8-.2 1.1 0 .4.1.4.4 0 .5zm-6.1-.9l-3.1 1.5c-.3.2-.8.2-1.1 0-.3-.1-.3-.4 0-.5l3.1-1.5c.3-.2.8-.2 1.1 0 .4.2.3.4 0 .5zm11 2.4l-6.1 3c-.3.2-.8.2-1.1 0-.3-.1-.3-.4 0-.5l6.1-3c.3-.2.8-.2 1.1 0 .3.1.3.4 0 .5zm1.8 3l-4 1.9c-.3.2-.8.2-1.1 0-.3-.1-.3-.4 0-.5l4-1.9c.3-.2.8-.2 1.1 0 .3.1.3.3 0 .5zm5.2 1.3l-5.3 2.6c-.3.2-.8.2-1.1 0-.3-.1-.3-.4 0-.5l5.3-2.6c.3-.2.8-.2 1.1 0 .4.1.4.3 0 .5zm3.2 2.3l-4.4 2.2c-.3.2-.8.2-1.1 0-.3-.1-.3-.4 0-.5l4.4-2.2c.3-.2.8-.2 1.1 0 .3.1.3.4 0 .5zm4.8 1.5l-5.3 2.6c-.3.2-.8.2-1.1 0-.3-.1-.3-.4 0-.5l5.3-2.6c.3-.2.8-.2 1.1 0 .3.1.3.4 0 .5zm5.7 1.1l-7 3.4c-.3.2-.8.2-1.1 0-.3-.1-.3-.4 0-.5l7-3.4c.3-.2.8-.2 1.1 0 .3.1.3.3 0 .5zm2.2 2.7l-5.3 2.6c-.3.2-.8.2-1.1 0-.3-.1-.3-.4 0-.5l5.3-2.6c.3-.2.8-.2 1.1 0 .4.2.3.4 0 .5zm3.1 2.4l-4.4 2.2c-.3.2-.8.2-1.1 0-.3-.1-.3-.4 0-.5l4.4-2.2c.3-.2.8-.2 1.1 0 .4.1.4.3 0 .5zm4.9 1.5l-5.3 2.6c-.3.2-.8.2-1.1 0-.3-.1-.3-.4 0-.5l5.3-2.6c.3-.2.8-.2 1.1 0 .3.1.3.3 0 .5zm6.5.7l-7.8 3.8c-.3.2-.8.2-1.1 0-.3-.1-.3-.4 0-.5l7.8-3.8c.3-.2.8-.2 1.1 0 .3.1.3.3 0 .5zm1.4 3.1l-5.3 2.6c-.3.2-.8.2-1.1 0-.3-.1-.3-.4 0-.5l5.3-2.6c.3-.2.8-.2 1.1 0 .3.1.3.4 0 .5zm-52.5-24.5l-4.4 2.2c-.3.2-.8.2-1.1 0-.3-.1-.3-.4 0-.5l4.4-2.2c.3-.2.8-.2 1.1 0 .4.1.4.4 0 .5zm37 32l-5.3 2.6c-.3.2-.8.2-1.1 0-.3-.1-.3-.4 0-.5l5.3-2.6c.3-.2.8-.2 1.1 0 .3.1.3.3 0 .5z"/></g><g class="st40"><path class="st4" d="M813 295.2L790.6 306c-.3.2-.9.1-1.2 0-.4-.2-.4-.4-.1-.6l22.4-10.8c.3-.2.9-.1 1.2 0 .4.2.5.4.1.6zm-17.8 3.8l-9.6 4.6c-.3.2-.9.1-1.2 0-.4-.2-.4-.4-.1-.6l9.6-4.6c.3-.2.9-.1 1.2 0 .4.1.4.4.1.6zm30.7-10l-9.6 4.6c-.3.2-.9.1-1.2 0-.4-.2-.4-.4-.1-.6l9.6-4.6c.3-.2.9-.1 1.2 0 .4.2.4.4.1.6zm-12.2 10.6l-13.8 6.7c-.3.2-.9.1-1.2 0-.4-.2-.4-.4-.1-.6l13.8-6.7c.3-.2.9-.1 1.2 0 .4.2.5.5.1.6zm12.9-6.2L817 298c-.3.2-.9.1-1.2 0-.4-.2-.4-.4-.1-.6l9.6-4.6c.3-.2.9-.1 1.2 0 .4.2.4.5.1.6zm25.7-12.3l-22.4 10.8c-.3.2-.9.1-1.2 0-.4-.2-.4-.4-.1-.6l22.4-10.8c.3-.2.9-.1 1.2 0 .3.2.4.4.1.6z"/><path class="st16" d="M810.2 306.2l-5.3 2.5c-.3.2-.9.1-1.2 0-.4-.2-.4-.4-.1-.6l5.3-2.5c.3-.2.9-.1 1.2 0 .3.1.4.4.1.6z"/><path class="st4" d="M835.8 293.8l-22.4 10.8c-.3.2-.9.1-1.2 0-.4-.2-.4-.4-.1-.6l22.4-10.8c.3-.2.9-.1 1.2 0 .4.2.5.4.1.6zm25.8-12.4l-22.5 10.8c-.3.2-.9.1-1.2 0-.4-.2-.4-.4-.1-.6l22.5-10.8c.3-.2.9-.1 1.2 0 .4.2.4.4.1.6z"/><path class="st16" d="M886.1 264.8l-30.5 14.7c-.3.2-.9.1-1.2 0-.4-.2-.4-.4-.1-.6l30.5-14.7c.3-.2.9-.1 1.2 0 .3.2.4.4.1.6z"/><path class="st4" d="M891.1 267.2l-26.2 12.6c-.3.2-.9.1-1.2 0-.4-.2-.4-.4-.1-.6l26.2-12.6c.3-.2.9-.1 1.2 0 .3.2.4.4.1.6zM828 302.4l-13.8 6.7c-.3.2-.9.1-1.2 0-.4-.2-.4-.4-.1-.6l13.8-6.7c.3-.2.9-.1 1.2 0 .4.1.4.4.1.6z"/><path class="st16" d="M853.2 290.2l-22 10.6c-.3.2-.9.1-1.2 0-.4-.2-.4-.4-.1-.6l22-10.6c.3-.2.9-.1 1.2 0 .4.2.4.5.1.6z"/><path class="st4" d="M880.7 277l-24.2 11.7c-.3.2-.9.1-1.2 0-.4-.2-.4-.4-.1-.6l24.2-11.7c.3-.2.9-.1 1.2 0 .4.1.4.4.1.6zm-57.2 32.3l-13 6.3c-.3.2-.9.1-1.2 0-.4-.2-.4-.4-.1-.6l13-6.3c.3-.2.9-.1 1.2 0 .4.2.5.4.1.6zm18-8.7l-14.7 7.1c-.3.2-.9.1-1.2 0-.4-.2-.4-.4-.1-.6l14.7-7.1c.3-.2.9-.1 1.2 0 .4.2.4.5.1.6zm10.3-4.9l-6.6 3.2c-.3.2-.9.1-1.2 0-.4-.2-.4-.4-.1-.6l6.6-3.2c.3-.2.9-.1 1.2 0 .4.2.4.4.1.6zm-18.1 13.5l-13.8 6.7c-.3.2-.9.1-1.2 0-.4-.2-.4-.4-.1-.6l13.8-6.7c.3-.2.9-.1 1.2 0 .3.2.4.5.1.6zm12.8-6.2l-9.6 4.6c-.3.2-.9.1-1.2 0-.4-.2-.4-.4-.1-.6l9.6-4.6c.3-.2.9-.1 1.2 0 .4.2.4.5.1.6z"/><path class="st16" d="M880.9 286.5l-31.1 15c-.3.2-.9.1-1.2 0-.4-.2-.4-.4-.1-.6l31.1-15c.3-.2.9-.1 1.2 0 .4.1.4.4.1.6zm-48.2 28l-7.8 3.8c-.3.2-.9.1-1.2 0-.4-.2-.4-.4-.1-.6l7.8-3.8c.3-.2.9-.1 1.2 0 .3.2.4.5.1.6z"/><path class="st4" d="M855.8 303.4L836 313c-.3.2-.9.1-1.2 0-.4-.2-.4-.4-.1-.6l19.8-9.6c.3-.2.9-.1 1.2 0 .3.2.4.4.1.6zm21.4-10.3l-18.1 8.7c-.3.2-.9.1-1.2 0-.4-.2-.4-.4-.1-.6l18.1-8.7c.3-.2.9-.1 1.2 0 .3.1.4.4.1.6zM847.9 312l-13.8 6.7c-.3.2-.9.1-1.2 0-.4-.2-.4-.4-.1-.6l13.8-6.7c.3-.2.9-.1 1.2 0 .4.1.4.4.1.6zm29.5-14.3l-26.2 12.6c-.3.2-.9.1-1.2 0-.4-.2-.4-.4-.1-.6l26.2-12.6c.3-.2.9-.1 1.2 0 .4.2.4.5.1.6z"/><path class="st16" d="M882.1 295.5l-1.4.7c-.3.2-.9.1-1.2 0-.4-.2-.4-.4-.1-.6l1.4-.7c.3-.2.9-.1 1.2 0 .4.1.5.4.1.6z"/><path class="st4" d="M843.5 318.9l-13 6.3c-.3.2-.9.1-1.2 0-.4-.2-.4-.4-.1-.6l13-6.3c.3-.2.9-.1 1.2 0 .3.2.4.4.1.6zm24.2 7.5l-17.3 8.3c-.3.2-.9.1-1.2 0-.4-.2-.4-.4-.1-.6l17.3-8.3c.3-.2.9-.1 1.2 0 .3.2.4.5.1.6z"/><path class="st16" d="M861.4 310.2l-14.7 7.1c-.3.2-.9.1-1.2 0-.4-.2-.4-.4-.1-.6l14.7-7.1c.3-.2.9-.1 1.2 0 .4.2.5.5.1.6z"/><path class="st4" d="M895.2 294l-30 14.5c-.3.2-.9.1-1.2 0-.4-.2-.4-.4-.1-.6l30-14.5c.3-.2.9-.1 1.2 0 .3.2.4.4.1.6zm-41.6 24.8l-13.8 6.7c-.3.2-.9.1-1.2 0-.4-.2-.4-.4-.1-.6l13.8-6.7c.3-.2.9-.1 1.2 0 .4.2.4.5.1.6zm12.8-6.2l-9.6 4.6c-.3.2-.9.1-1.2 0-.4-.2-.4-.4-.1-.6l9.6-4.6c.3-.2.9-.1 1.2 0 .4.2.4.5.1.6z"/><path class="st16" d="M892.1 300.3L869.7 311c-.3.2-.9.1-1.2 0-.4-.2-.4-.4-.1-.6l22.4-10.8c.3-.2.9-.1 1.2 0 .4.2.4.5.1.7zm-39.5 23.8l-3.6 1.7c-.3.2-.9.1-1.2 0-.4-.2-.4-.4-.1-.6l3.6-1.7c.3-.2.9-.1 1.2 0 .3.2.4.4.1.6z"/><path class="st4" d="M875.7 313l-19.8 9.6c-.3.2-.9.1-1.2 0-.4-.2-.4-.4-.1-.6l19.8-9.6c.3-.2.9-.1 1.2 0 .4.1.4.4.1.6zm21.4-10.3l-18.1 8.7c-.3.2-.9.1-1.2 0-.4-.2-.4-.4-.1-.6l18.1-8.7c.3-.2.9-.1 1.2 0 .4.1.4.4.1.6z"/><path class="st16" d="M867.8 321.5l-9.6 4.6c-.3.2-.9.1-1.2 0-.4-.2-.4-.4-.1-.6l9.6-4.6c.3-.2.9-.1 1.2 0 .4.2.4.5.1.6z"/><path class="st4" d="M888.8 311.4l-17.7 8.5c-.3.2-.9.1-1.2 0-.4-.2-.4-.4-.1-.6l17.7-8.5c.3-.2.9-.1 1.2 0 .4.2.4.5.1.6zM923 295l-30.9 14.9c-.3.2-.9.1-1.2 0-.4-.2-.4-.4-.1-.6l30.9-14.9c.3-.2.9-.1 1.2 0 .4.2.4.4.1.6zm-17-20.6l-22.4 10.8c-.3.2-.9.1-1.2 0-.4-.2-.4-.4-.1-.6l22.4-10.8c.3-.2.9-.1 1.2 0 .4.2.4.4.1.6zm5 2.4l-30.8 14.8c-.3.2-.9.1-1.2 0-.4-.2-.4-.4-.1-.6l30.8-14.8c.3-.2.9-.1 1.2 0 .3.2.4.4.1.6z"/><path class="st16" d="M911.2 281.4L885 294.1c-.3.2-.9.1-1.2 0-.4-.2-.4-.4-.1-.6l26.2-12.6c.3-.2.9-.1 1.2 0 .4.1.5.4.1.5z"/><path class="st4" d="M916 279.2l-1.4.7c-.3.2-.9.1-1.2 0-.4-.2-.4-.4-.1-.6l1.4-.7c.3-.2.9-.1 1.2 0 .3.2.4.4.1.6zm-1.9 5.7l-15.1 7.3c-.3.2-.9.1-1.2 0-.4-.2-.4-.4-.1-.6l15.1-7.3c.3-.2.9-.1 1.2 0 .4.2.4.4.1.6zm11.8-.9l-30.5 14.7c-.3.2-.9.1-1.2 0-.4-.2-.4-.4-.1-.6l30.5-14.7c.3-.2.9-.1 1.2 0 .4.2.4.4.1.6z"/><path class="st16" d="M930.9 286.4L901 300.8c-.3.2-.9.1-1.2 0-.4-.2-.4-.4-.1-.6l29.9-14.4c.3-.2.9-.1 1.2 0 .4.1.4.4.1.6z"/><path class="st4" d="M935.9 288.8l-10 4.8c-.3.2-.9.1-1.2 0-.4-.2-.4-.4-.1-.6l10-4.8c.3-.2.9-.1 1.2 0 .3.1.4.4.1.6zm-58.2 37.5l-22.4 10.8c-.3.2-.9.1-1.2 0-.4-.2-.4-.4-.1-.6l22.4-10.8c.3-.2.9-.1 1.2 0 .4.2.4.5.1.6z"/><path class="st16" d="M890.5 320.2l-9.6 4.6c-.3.2-.9.1-1.2 0-.4-.2-.4-.4-.1-.6l9.6-4.6c.3-.2.9-.1 1.2 0 .4.1.4.4.1.6z"/><path class="st4" d="M878.4 330.8l-13.8 6.7c-.3.2-.9.1-1.2 0-.4-.2-.4-.4-.1-.6l13.8-6.7c.3-.2.9-.1 1.2 0 .4.2.4.5.1.6zm12.8-6.2l-9.6 4.6c-.3.2-.9.1-1.2 0-.4-.2-.4-.4-.1-.6l9.6-4.6c.3-.2.9-.1 1.2 0 .4.2.4.5.1.6zm25.7-12.3L894.5 323c-.3.2-.9.1-1.2 0-.4-.2-.4-.4-.1-.6l22.4-10.8c.3-.2.9-.1 1.2 0 .4.2.4.5.1.7z"/><path class="st16" d="M874.8 337.3l-5.3 2.5c-.3.2-.9.1-1.2 0-.4-.2-.4-.4-.1-.6l5.3-2.5c.3-.2.9-.1 1.2 0 .4.2.4.5.1.6zm25.7-12.3l-22.4 10.8c-.3.2-.9.1-1.2 0-.4-.2-.4-.4-.1-.6l22.4-10.8c.3-.2.9-.1 1.2 0 .4.1.4.4.1.6z"/><path class="st4" d="M926.2 312.6l-22.5 10.8c-.3.2-.9.1-1.2 0-.4-.2-.4-.4-.1-.6l22.5-10.8c.3-.2.9-.1 1.2 0 .4.1.4.4.1.6zm24.5-16.6l-30.5 14.7c-.3.2-.9.1-1.2 0-.4-.2-.4-.4-.1-.6l30.5-14.7c.3-.2.9-.1 1.2 0 .4.1.4.4.1.6zm5 2.4L929.5 311c-.3.2-.9.1-1.2 0-.4-.2-.4-.4-.1-.6l26.2-12.6c.3-.2.9-.1 1.2 0 .4.1.4.4.1.6zm-63.1 35.1l-13.8 6.7c-.3.2-.9.1-1.2 0-.4-.2-.4-.4-.1-.6l13.8-6.7c.3-.2.9-.1 1.2 0 .4.2.4.5.1.6zm25.3-12.1l-22 10.6c-.3.2-.9.1-1.2 0-.4-.2-.4-.4-.1-.6l22-10.6c.3-.2.9-.1 1.2 0 .4.2.4.4.1.6z"/><path class="st16" d="M945.4 308.1l-24.2 11.7c-.3.2-.9.1-1.2 0-.4-.2-.4-.4-.1-.6l24.2-11.7c.3-.2.9-.1 1.2 0 .3.2.4.5.1.6z"/><path class="st4" d="M888.2 340.5l-13 6.3c-.3.2-.9.1-1.2 0-.4-.2-.4-.4-.1-.6l13-6.3c.3-.2.9-.1 1.2 0 .4.2.4.4.1.6z"/><path class="st16" d="M906.2 331.8l-14.7 7.1c-.3.2-.9.1-1.2 0-.4-.2-.4-.4-.1-.6l14.7-7.1c.3-.2.9-.1 1.2 0 .3.2.4.5.1.6z"/><path class="st4" d="M916.4 326.9l-6.6 3.2c-.3.2-.9.1-1.2 0-.4-.2-.4-.4-.1-.6l6.6-3.2c.3-.2.9-.1 1.2 0 .4.1.5.4.1.6z"/><path class="st16" d="M898.3 340.4l-13.8 6.7c-.3.2-.9.1-1.2 0-.4-.2-.4-.4-.1-.6l13.8-6.7c.3-.2.9-.1 1.2 0 .4.2.4.4.1.6z"/><path class="st4" d="M911.1 334.2l-9.6 4.6c-.3.2-.9.1-1.2 0-.4-.2-.4-.4-.1-.6l9.6-4.6c.3-.2.9-.1 1.2 0 .4.2.5.5.1.6zm34.5-16.6l-31.1 15c-.3.2-.9.1-1.2 0-.4-.2-.4-.4-.1-.6l31.1-15c.3-.2.9-.1 1.2 0 .3.2.4.5.1.6zm-48.3 28.1l-7.8 3.8c-.3.2-.9.1-1.2 0-.4-.2-.4-.4-.1-.6l7.8-3.8c.3-.2.9-.1 1.2 0 .4.2.4.4.1.6zm23.1-11.2l-19.8 9.6c-.3.2-.9.1-1.2 0-.4-.2-.4-.4-.1-.6l19.8-9.6c.3-.2.9-.1 1.2 0 .4.2.4.5.1.6z"/><path class="st16" d="M941.8 324.2l-18.1 8.7c-.3.2-.9.1-1.2 0-.4-.2-.4-.4-.1-.6l18.1-8.7c.3-.2.9-.1 1.2 0 .4.2.4.5.1.6zm-29.3 18.9l-13.8 6.7c-.3.2-.9.1-1.2 0-.4-.2-.4-.4-.1-.6l13.8-6.7c.3-.2.9-.1 1.2 0 .4.2.5.5.1.6z"/><path class="st4" d="M942.1 328.9l-26.2 12.6c-.3.2-.9.1-1.2 0-.4-.2-.4-.4-.1-.6l26.2-12.6c.3-.2.9-.1 1.2 0 .4.2.4.5.1.6zm4.7-2.3l-1.4.7c-.3.2-.9.1-1.2 0-.4-.2-.4-.4-.1-.6l1.4-.7c.3-.2.9-.1 1.2 0 .4.2.4.5.1.6z"/><path class="st16" d="M970.6 305.6l-22.4 10.8c-.3.2-.9.1-1.2 0-.4-.2-.4-.4-.1-.6l22.4-10.8c.3-.2.9-.1 1.2 0 .4.1.5.4.1.6z"/><path class="st4" d="M975.6 308l-30.8 14.8c-.3.2-.9.1-1.2 0-.4-.2-.4-.4-.1-.6l30.8-14.8c.3-.2.9-.1 1.2 0 .4.1.4.4.1.6zm.3 4.6l-26.2 12.6c-.3.2-.9.1-1.2 0-.4-.2-.4-.4-.1-.6l26.2-12.6c.3-.2.9-.1 1.2 0 .4.2.4.5.1.6zm4.7-2.3l-1.4.7c-.3.2-.9.1-1.2 0-.4-.2-.4-.4-.1-.6l1.4-.7c.3-.2.9-.1 1.2 0 .4.2.4.5.1.6z"/></g><path d="M738.1 294.4l-3.7-1.8v2.9c-.1 1.9.9 3.6 2.9 4.6l2.3 1.1v-7.6l-1.5.8z" fill="#bec1c6"/><path d="M842.3 259.1c-3.4 1.6-3.4 6.4 0 8l112.2 54.2c4.5 2.2 9.7 2.2 14.2 0l71.4-34.5-127.6-61.7-70.2 34z" opacity=".4" fill="#1e448c"/><path class="st4" d="M900.3 219.2c-6.5-3.1-14.1-3.1-20.6 0L737.3 288c-3.8 1.8-3.8 7.3 0 9.1l2.3 1.1L901.8 220c-.5-.3-1-.5-1.5-.8z"/><defs><path id="SVGID_3_" d="M920.5 367.5l55.8-27 32.2 15.6-55.8 27z"/></defs><clipPath id="SVGID_4_"><use xlink:href="#SVGID_3_" overflow="visible"/></clipPath><g clip-path="url(#SVGID_4_)"><path class="st44" d="M919.6 371.3l7-2.8 6-4.9 6.9-2.9 6.2-4.4 7.5-1.8 7.1-2.6 6-4.9 6.3-4.3 7.5-1.8"/><path class="st45" d="M924.2 374.2l6.1-4.6 6.1-4.7 7.4-2 7.1-2.5 5.8-5.4 6.9-3 6.5-3.8 6.7-3.4 6.9-3"/><path class="st44" d="M928.1 375.7l6.9-3 6.4-4.1 7.1-2.6 6.8-3.3 5.8-5.1 7.9-1.1 6.2-4.4 6.9-3.1 5.7-5.5"/><path class="st45" d="M931.8 376.7l6.7-3.4 6.9-3 7-2.9 7.1-2.6 6.8-3.3 6.8-3 6.2-4.6 7.2-2.3 6.7-3.4"/><path class="st44" d="M935.5 377.6l6.6-3.6 7.8-1.2 6.5-3.8 5.9-5 7.2-2.5 6.7-3.2 6.4-4.2 7.3-2.2 6.9-2.9"/><path class="st45" d="M940.1 380.5l6.6-3.6 7.9-1 5.7-5.5 6.9-2.8 6.2-4.5 8-.8 6.8-3.3 5.9-4.9 6.9-3.2"/><path class="st44" d="M944.5 383l6.7-3.5 6.3-4.2 7-2.8 7.4-2 7.1-2.5 5.7-5.5 6.7-3.4 7-2.9 6.1-4.5"/></g><path class="st46" d="M1147.2 186.3l-16-8.4v3.3l-98.5-47.6a16.1 16.1 0 00-14.2 0l-175.6 84.9-2.6-1.4v3.1c0 1.6.8 3.2 2.5 4l112 54.2c4.5 2.2 9.7 2.2 14.2 0l175.8-85c1.7-.8 2.6-2.5 2.5-4.2v-2.9z"/><path class="st47" d="M1018.5 128.3l-175.8 85c-3.3 1.6-3.3 6.4 0 8l112 54.2c4.5 2.2 9.7 2.2 14.2 0l175.8-85c3.3-1.6 3.3-6.4 0-8l-112-54.2a16.1 16.1 0 00-14.2 0z"/><path d="M1032.7 128.3a16.1 16.1 0 00-14.2 0l-175.8 85c-3.3 1.6-3.3 6.4 0 8l11.2 5.4 191.1-92.4-12.3-6z" opacity=".7" fill="#33332d"/><path class="st49" d="M1132.7 186.2l-89.1-43.1-50.4 24.3 89.2 43.1zm-103.2-39.7l-39.8 19.2 3.5 1.7 39.8-19.2z"/><path class="st50" d="M1026.4 168.7c.4.2.5.5.2.7-.3.2-1 .1-1.4-.1-.4-.2-.5-.5-.2-.7.3-.2 1-.1 1.4.1zm-5.4 4.8c.4.2.5.5.2.7-.3.2-1 .1-1.4-.1-.4-.2-.5-.5-.2-.7.3-.2 1-.2 1.4.1zm4.3-11.8c.4.2.5.5.2.7-.3.2-1 .1-1.4-.1-.4-.2-.5-.5-.2-.7.3-.1.9-.1 1.4.1zm6.1-.4c.4.2.5.5.2.7-.3.2-1 .1-1.4-.1-.4-.2-.5-.5-.2-.7.4-.1 1-.1 1.4.1zm3.3-3.6c.4.2.5.5.2.7-.3.2-1 .1-1.4-.1s-.5-.5-.2-.7c.3-.1.9-.1 1.4.1zm15.6-.4c.4.2.5.5.2.7-.3.2-1 .1-1.4-.1-.4-.2-.5-.5-.2-.7.4-.2 1-.1 1.4.1zm-2.5-7.4c.4.2.5.5.2.7s-1 .1-1.4-.1c-.4-.2-.5-.5-.2-.7.4-.2 1-.1 1.4.1z"/><path fill="none" stroke="#a5a4a2" stroke-width="1.25" stroke-miterlimit="10" d="M1020.4 173.7l5.4-4.7-1.2-7 6.2-.4 3.3-3.6 15.6-.4-2.5-7.4"/><path class="st29" d="M1012.4 169.4c.4.2.5.5.2.7-.3.2-1 .1-1.4-.1-.4-.2-.5-.5-.2-.7s1-.1 1.4.1zm8.3-2.9c.4.2.5.5.2.7-.3.2-1 .1-1.4-.1-.4-.2-.5-.5-.2-.7.3-.1 1-.1 1.4.1zm10.3 0c.4.2.5.5.2.7-.3.2-1 .1-1.4-.1-.4-.2-.5-.5-.2-.7.4-.1 1-.1 1.4.1zm6.3-5.1c.4.2.5.5.2.7-.3.2-1 .1-1.4-.1-.4-.2-.5-.5-.2-.7.4-.1 1-.1 1.4.1zm8.9 1.1c.4.2.5.5.2.7-.3.2-1 .1-1.4-.1-.4-.2-.5-.5-.2-.7s.9-.1 1.4.1zm0-7.5c.4.2.5.5.2.7-.3.2-1 .1-1.4-.1-.4-.2-.5-.5-.2-.7.3-.1.9-.1 1.4.1zm7.1-1.4c.4.2.5.5.2.7-.3.2-1 .1-1.4-.1-.4-.2-.5-.5-.2-.7.4-.2 1-.1 1.4.1z"/><path class="st52" d="M1011.8 169.7l8.3-2.9h10.3l6.3-5.1 8.8 1.1v-7.5l7.2-1.4"/><path d="M1054.9 194.5l46.1-22.3m-31 29.5l46.1-22.3" opacity=".3" stroke="#8c8984" stroke-linecap="round" stroke-linejoin="round" fill="none" stroke-miterlimit="10"/><path class="st30" d="M1044.2 181.5l-2.7 1.2-6.1-3 2.6-1.2zm3.9-1.9l-2.6 1.2-11.9-5.7 2.7-1.3zm4-1.9l-2.7 1.2-9.2-4.5 2.6-1.2zm4.3-2.1l-2.6 1.3-4.2-2.1 2.6-1.2z"/><path class="st29" d="M1060.4 173.7l-2.7 1.3-13.3-6.5 2.6-1.3zm3.9-1.9l-2.6 1.3-10.8-5.3 2.6-1.2zm4.4-2.1l-2.7 1.3-4.1-2.1 2.6-1.2z"/><path class="st30" d="M1054.2 174.5l-2.6 1.3-4.2-2.1 2.6-1.2z"/><path class="st29" d="M1066.6 168.7l-2.7 1.2-4.1-2 2.6-1.2zm6-.9l-2.6 1.3-13.4-6.5 2.6-1.3zm4-1.9l-2.7 1.3-10.7-5.3 2.6-1.2z"/><path d="M1033.9 183.3l46.1-22.2m-50.1 20.2l46.1-22.2" stroke="#606055" fill="none" stroke-miterlimit="10"/><path class="st52" d="M1076.8 180.1l-5.1-2.5m8.1 1l-7.8-3.8m10.8 2.3l-4.5-2.1m7.5.6l-6-2.9m9 1.5l-4.6-2.3m7.7.8l-6.7-3.2m9.7 1.7l-4.2-2m1.4 18.3l-3.8-1.8m6.8.3l-3.2-1.5m6.2 0l-3.8-1.8m6.8.4l-7.2-3.5m10.2 2l-7.9-3.8m10.9 2.3l-4.1-2m7.1.5l-8.5-4.1m5.6 20l-2.4-1.2m5.4-.3l-3.3-1.6m6.3.1l-6.4-3.1m9.5 1.7l-2.8-1.4m5.8-.1l-3.1-1.5m6.1 0l-2.4-1.2m5.4-.3l-3-1.4"/><path class="st49" d="M909.9 207.7l89.1 43.1 76.9-37.1-89.2-43.1z"/><path class="st49" d="M946.2 186.8L906.4 206l3.5 1.7 39.8-19.2z"/><path class="st55" d="M952.8 199.4l-23 11.1c-.3.2-.9.1-1.3-.1s-.5-.5-.2-.6l23-11.1c.3-.2.9-.1 1.3.1.5.2.6.5.2.6z"/><path class="st29" d="M929.8 205.1l-5.4 2.6c-.3.2-.9.1-1.3-.1s-.5-.5-.2-.6l5.4-2.6c.3-.2.9-.1 1.3.1s.5.5.2.6z"/><path class="st50" d="M966 193.1l-9.8 4.7c-.3.2-.9.1-1.3-.1s-.5-.5-.2-.6l9.8-4.7c.3-.2.9-.1 1.3.1.5.1.5.4.2.6zm-12 11.2l-14.2 6.8c-.3.2-.9.1-1.3-.1s-.5-.5-.2-.6l14.2-6.8c.3-.2.9-.1 1.3.1.4.1.5.4.2.6z"/><path class="st55" d="M967.1 197.9l-9.8 4.7c-.3.2-.9.1-1.3-.1s-.5-.5-.2-.6l9.8-4.7c.3-.2.9-.1 1.3.1.5.2.6.5.2.6zm26.4-12.7l-23 11.1c-.3.2-.9.1-1.3-.1s-.5-.5-.2-.6l23-11.1c.3-.2.9-.1 1.3.1s.5.5.2.6zm-42.8 26l-5.4 2.6c-.3.2-.9.1-1.3-.1s-.5-.5-.2-.6l5.4-2.6c.3-.2.9-.1 1.3.1.5.2.6.5.2.6zm26.4-12.6l-23 11.1c-.3.2-.9.1-1.3-.1s-.5-.5-.2-.6l23-11.1c.3-.2.9-.1 1.3.1.4.1.5.4.2.6z"/><path class="st50" d="M999 188l-18.6 8.9c-.3.2-.9.1-1.3-.1s-.5-.5-.2-.6l18.6-8.9c.3-.2.9-.1 1.3.1.5.1.5.4.2.6zm-29.6 19.6l-14.2 6.8c-.3.2-.9.1-1.3-.1s-.5-.5-.2-.6l14.2-6.8c.3-.2.9-.1 1.3.1.5.2.5.5.2.6z"/><path class="st55" d="M995.3 195.2L972.8 206c-.3.2-.9.1-1.3-.1s-.5-.5-.2-.6l22.5-10.8c.3-.2.9-.1 1.3.1.5.1.5.4.2.6z"/><path class="st50" d="M1004.5 190.7l-5.8 2.8c-.3.2-.9.1-1.3-.1s-.5-.5-.2-.6l5.8-2.8c.3-.2.9-.1 1.3.1.5.2.5.5.2.6z"/><path class="st29" d="M965.3 215l-13.3 6.4c-.3.2-.9.1-1.3-.1s-.5-.5-.2-.6l13.3-6.4c.3-.2.9-.1 1.3.1s.5.5.2.6z"/><path class="st55" d="M983.7 206.2l-15.1 7.3c-.3.2-.9.1-1.3-.1s-.5-.5-.2-.6l15.1-7.3c.3-.2.9-.1 1.3.1.5.1.5.4.2.6z"/><path class="st50" d="M994.2 201.1l-6.7 3.2c-.3.2-.9.1-1.3-.1s-.5-.5-.2-.6l6.7-3.2c.3-.2.9-.1 1.3.1.5.1.6.4.2.6zm-18.1 14.1l-14.2 6.8c-.3.2-.9.1-1.3-.1s-.5-.5-.2-.6l14.2-6.8c.3-.2.9-.1 1.3.1s.5.5.2.6z"/><path class="st55" d="M989.2 208.9l-9.8 4.7c-.3.2-.9.1-1.3-.1s-.5-.5-.2-.6l9.8-4.7c.3-.2.9-.1 1.3.1.5.2.6.4.2.6zm26.4-12.7l-23 11.1c-.3.2-.9.1-1.3-.1s-.5-.5-.2-.6l23-11.1c.3-.2.9-.1 1.3.1s.5.5.2.6zm-40.1 24.7l-8 3.9c-.3.2-.9.1-1.3-.1s-.5-.5-.2-.6l8-3.9c.3-.2.9-.1 1.3.1s.5.5.2.6zm23.7-11.4l-20.3 9.8c-.3.2-.9.1-1.3-.1s-.5-.5-.2-.6l20.3-9.8c.3-.2.9-.1 1.3.1s.5.5.2.6z"/><path class="st50" d="M1021.1 199l-18.6 8.9c-.3.2-.9.1-1.3-.1s-.5-.5-.2-.6l18.6-8.9c.3-.2.9-.1 1.3.1.4.1.5.4.2.6z"/><path class="st55" d="M991.5 218.6l-14.2 6.8c-.3.2-.9.1-1.3-.1s-.5-.5-.2-.6l14.2-6.8c.3-.2.9-.1 1.3.1.5.2.5.5.2.6zm30.3-14.6l-26.9 13c-.3.2-.9.1-1.3-.1s-.5-.5-.2-.6l26.9-13c.3-.2.9-.1 1.3.1s.5.5.2.6z"/><path class="st50" d="M1026.6 201.7l-1.5.7c-.3.2-.9.1-1.3-.1s-.5-.5-.2-.6l1.5-.7c.3-.2.9-.1 1.3.1.5.2.5.5.2.6z"/><path class="st29" d="M987.4 226l-13.3 6.4c-.3.2-.9.1-1.3-.1s-.5-.5-.2-.6l13.3-6.4c.3-.2.9-.1 1.3.1s.5.5.2.6zm13.3 15.2l-4.5 2.2c-.3.2-.9.1-1.3-.1s-.5-.5-.2-.6l4.5-2.2c.3-.2.9-.1 1.3.1.5.2.5.5.2.6z"/><path class="st50" d="M1005.8 217.1l-15.1 7.3c-.3.2-.9.1-1.3-.1s-.5-.5-.2-.6l15.1-7.3c.3-.2.9-.1 1.3.1.5.2.5.5.2.6z"/><path class="st55" d="M1025.1 207.8l-15.5 7.5c-.3.2-.9.1-1.3-.1s-.5-.5-.2-.6l15.5-7.5c.3-.2.9-.1 1.3.1.5.2.5.5.2.6zm-26.9 18.4L984 233c-.3.2-.9.1-1.3-.1s-.5-.5-.2-.6l14.2-6.8c.3-.2.9-.1 1.3.1s.5.5.2.6zm13.1-6.3l-9.8 4.7c-.3.2-.9.1-1.3-.1s-.5-.5-.2-.6l9.8-4.7c.3-.2.9-.1 1.3.1.5.1.6.4.2.6z"/><path class="st50" d="M1037.7 207.2l-23 11.1c-.3.2-.9.1-1.3-.1s-.5-.5-.2-.6l23-11.1c.3-.2.9-.1 1.3.1s.5.4.2.6zm-40.1 24.7l-3.7 1.8c-.3.2-.9.1-1.3-.1s-.5-.5-.2-.6l3.7-1.8c.3-.2.9-.1 1.3.1s.5.5.2.6z"/><path class="st55" d="M1021.2 220.5l-20.3 9.8c-.3.2-.9.1-1.3-.1s-.5-.5-.2-.6l20.3-9.8c.3-.2.9-.1 1.3.1.5.2.6.5.2.6zm22-10.6l-18.6 8.9c-.3.2-.9.1-1.3-.1s-.5-.5-.2-.6l18.6-8.9c.3-.2.9-.1 1.3.1s.5.5.2.6zm-29.6 19.7l-9.8 4.7c-.3.2-.9.1-1.3-.1s-.5-.5-.2-.6l9.8-4.7c.3-.2.9-.1 1.3.1.5.2.5.4.2.6z"/><path class="st50" d="M1035.1 219.2L1017 228c-.3.2-.9.1-1.3-.1s-.5-.5-.2-.6l18.1-8.7c.3-.2.9-.1 1.3.1.5.1.5.4.2.5z"/><path class="st55" d="M1048.7 212.7l-10.2 4.9c-.3.2-.9.1-1.3-.1s-.5-.5-.2-.6l10.2-4.9c.3-.2.9-.1 1.3.1.5.1.5.4.2.6z"/><path class="st49" d="M991 254.7l-89.1-43.1-24.2 11.6-4.5 2.2 89.2 43.1 24.1-11.6z"/><path class="st49" d="M869.7 223.7l3.5 1.7 9.4-4.5-3.6-1.7z"/><path class="st55" d="M889.8 223.9l-5.7 2.7c-.3.2-.9.2-1.2 0-.3-.1-.3-.4.1-.6l5.7-2.7c.3-.2.9-.2 1.2 0 .3.2.2.4-.1.6zm3.2 2.4l-4.7 2.3c-.3.2-.9.2-1.2 0-.3-.1-.3-.4.1-.6l4.7-2.3c.3-.2.9-.2 1.2 0 .3.2.2.4-.1.6z"/><path class="st29" d="M898.1 227.8l-5.7 2.7c-.3.2-.9.2-1.2 0-.3-.1-.3-.4.1-.6l5.7-2.7c.3-.2.9-.2 1.2 0 .2.2.2.5-.1.6z"/><path class="st55" d="M901.3 230.2l-4.7 2.3c-.3.2-.9.2-1.2 0-.3-.1-.3-.4.1-.6l4.7-2.3c.3-.2.9-.2 1.2 0 .2.2.2.5-.1.6z"/><path class="st50" d="M906.3 231.8l-5.7 2.7c-.3.2-.9.2-1.2 0-.3-.1-.3-.4.1-.6l5.7-2.7c.3-.2.9-.2 1.2 0 .3.1.3.4-.1.6z"/><path class="st55" d="M913.2 232.4l-8.4 4.1c-.3.2-.9.2-1.2 0-.3-.1-.3-.4.1-.6l8.4-4.1c.3-.2.9-.2 1.2 0 .3.2.2.4-.1.6zm1.4 3.3l-5.7 2.7c-.3.2-.9.2-1.2 0-.3-.1-.3-.4.1-.6l5.7-2.7c.3-.2.9-.2 1.2 0 .2.2.2.4-.1.6z"/><path class="st29" d="M917.8 238.1l-4.7 2.3c-.3.2-.9.2-1.2 0-.3-.1-.3-.4.1-.6l4.7-2.3c.3-.2.9-.2 1.2 0 .2.2.2.4-.1.6z"/><path class="st55" d="M934.3 246l-4.7 2.3c-.3.2-.9.2-1.2 0-.3-.1-.3-.4.1-.6l4.7-2.3c.3-.2.9-.2 1.2 0 .3.2.2.4-.1.6z"/><path class="st50" d="M922.8 239.6l-5.7 2.7c-.3.2-.9.2-1.2 0-.3-.1-.3-.4.1-.6l5.7-2.7c.3-.2.9-.2 1.2 0 .3.2.3.5-.1.6z"/><path class="st55" d="M929.7 240.3l-8.4 4.1c-.3.2-.9.2-1.2 0-.3-.1-.3-.4.1-.6l8.4-4.1c.3-.2.9-.2 1.2 0 .3.2.2.4-.1.6zm1.4 3.3l-5.7 2.7c-.3.2-.9.2-1.2 0-.3-.1-.3-.4.1-.6l5.7-2.7c.3-.2.9-.2 1.2 0 .2.1.2.4-.1.6zm7.3 4.3l-4.7 2.3c-.3.2-.9.2-1.2 0-.3-.1-.3-.4.1-.6l4.7-2.3c.3-.2.9-.2 1.2 0 .3.2.3.5-.1.6zm5.1 1.6l-5.7 2.7c-.3.2-.9.2-1.2 0-.3-.1-.3-.4.1-.6l5.7-2.7c.3-.2.9-.2 1.2 0 .2.2.2.4-.1.6z"/><path class="st50" d="M950.3 250.1l-8.4 4.1c-.3.2-.9.2-1.2 0-.3-.1-.3-.4.1-.6l8.4-4.1c.3-.2.9-.2 1.2 0 .3.2.3.4-.1.6z"/><path class="st55" d="M951.7 253.4l-5.7 2.7c-.3.2-.9.2-1.2 0-.3-.1-.3-.4.1-.6l5.7-2.7c.3-.2.9-.2 1.2 0 .3.2.3.4-.1.6zm3.2 2.4l-4.7 2.3c-.3.2-.9.2-1.2 0-.3-.1-.3-.4.1-.6l4.7-2.3c.3-.2.9-.2 1.2 0 .3.2.3.4-.1.6z"/><path class="st29" d="M960 257.3l-5.7 2.7c-.3.2-.9.2-1.2 0-.3-.1-.3-.4.1-.6l5.7-2.7c.3-.2.9-.2 1.2 0 .2.2.2.5-.1.6z"/><path class="st55" d="M963.2 259.7l-4.7 2.3c-.3.2-.9.2-1.2 0-.3-.1-.3-.4.1-.6l4.7-2.3c.3-.2.9-.2 1.2 0 .2.2.2.5-.1.6zm92.9-71.7l-4.6 2.2c-.2.1-.4.1-.6 0-.2-.1-.2-.2-.1-.3l4.6-2.2c.2-.1.4-.1.6 0 .2.1.2.3.1.3z"/><path class="st29" d="M1053.5 186.7l-4.6 2.2c-.2.1-.4.1-.6 0-.2-.1-.2-.2-.1-.3l4.6-2.2c.2-.1.4-.1.6 0 .2.1.2.3.1.3z"/><path class="st55" d="M1060.7 188.3l-6.6 3.2c-.2.1-.4.1-.6 0-.2-.1-.2-.2-.1-.3l6.6-3.2c.2-.1.4-.1.6 0 .2.1.3.2.1.3zm3.2-6.6l-4.8 2.3c-.2.1-.4.1-.6 0-.2-.1-.2-.2-.1-.3l4.8-2.3c.2-.1.4-.1.6 0 .3.1.3.2.1.3zm1.8 1.6l-4 1.9c-.2.1-.4.1-.6 0-.2-.1-.2-.2-.1-.3l4-1.9c.2-.1.4-.1.6 0 .2.1.3.3.1.3zm3.4.9l-4.8 2.3c-.2.1-.4.1-.6 0-.2-.1-.2-.2-.1-.3l4.8-2.3c.2-.1.4-.1.6 0 .3.1.3.3.1.3z"/><path class="st29" d="M1069.2 192.9l-6.6 3.2c-.2.1-.4.1-.6 0-.2-.1-.2-.2-.1-.3l6.6-3.2c.2-.1.4-.1.6 0 .3 0 .3.2.1.3z"/><path class="st55" d="M1071.4 194.3l-6.2 3c-.2.1-.4.1-.6 0-.2-.1-.2-.2-.1-.3l6.2-3c.2-.1.4-.1.6 0 .2.1.3.3.1.3zm3 1.1l-6.6 3.2c-.2.1-.4.1-.6 0-.2-.1-.2-.2-.1-.3l6.6-3.2c.2-.1.4-.1.6 0 .2.1.3.2.1.3zm4.9-7.4l-6.4 3.1c-.2.1-.4.1-.6 0-.2-.1-.2-.2-.1-.3l6.4-3.1c.2-.1.4-.1.6 0 .2.1.3.2.1.3zm1 2l-4.8 2.3c-.2.1-.4.1-.6 0-.2-.1-.2-.2-.1-.3l4.8-2.3c.2-.1.4-.1.6 0 .2.1.2.3.1.3zm1.7 1.7l-4 1.9c-.2.1-.4.1-.6 0-.2-.1-.2-.2-.1-.3l4-1.9c.2-.1.4-.1.6 0 .2.1.3.3.1.3zm2.4 10.8l-4.6 2.2c-.2.1-.4.1-.6 0-.2-.1-.2-.2-.1-.3l4.6-2.2c.2-.1.4-.1.6 0 .2.1.2.2.1.3z"/><path class="st29" d="M1081.8 201.2l-4.6 2.2c-.2.1-.4.1-.6 0-.2-.1-.2-.2-.1-.3l4.6-2.2c.2-.1.4-.1.6 0 .2.1.2.2.1.3z"/><path class="st55" d="M1092.2 196.1l-4.8 2.3c-.2.1-.4.1-.6 0-.2-.1-.2-.2-.1-.3l4.8-2.3c.2-.1.4-.1.6 0 .3.1.3.2.1.3zm1.8 1.7l-4 1.9c-.2.1-.4.1-.6 0-.2-.1-.2-.2-.1-.3l4-1.9c.2-.1.4-.1.6 0 .2.1.3.2.1.3z"/><path class="st56" d="M842.9 218.5l-2.6-1.4v3.1c0 1.6.8 3.2 2.5 4l2.4 1.2v-8l-2.3 1.1z"/><path d="M1032.7 128.3a16.1 16.1 0 00-14.2 0l-175.8 85c-3.3 1.6-3.3 6.4 0 8l2.4 1.1 191.1-92.4-3.5-1.7z" fill="#96928d"/><path d="M1118.4 395l-92.4-44.6c-4.2-2-9.2-2-13.4 0L912.2 399c-.2.1-.4.2-.5.3l-1.8-1.5v2.7c0 1.4.8 2.9 2.3 3.6l100.5 48.6c4.2 2.1 9.2 2.1 13.4 0l100.5-48.6c1.3-.6 2.1-1.9 2.2-3.1v-3.1l-10.4-2.9z" fill="#ad9507"/><path d="M915.2 398.9v-1.3l-3 1.4c-.2.1-.4.2-.5.3l-1.8-1.5v2.7c0 1.4.8 2.9 2.3 3.6l.7.3v-5.6h2.3z" fill="#9e9e9e"/><path fill="#a38d0c" d="M912.9 398.9v5.6l4.1 2v-7.6z"/><path d="M912.2 401.4l100.5 48.6c4.2 2.1 9.2 2.1 13.4 0l100.5-48.6c3-1.5 3-5.8 0-7.2l-100.5-48.5c-4.2-2-9.2-2-13.4 0l-100.5 48.6c-3 1.4-3 5.7 0 7.1z" fill="#fcf010"/><path class="st62" d="M1073.9 403l30.9-14.9-31-15L1043 388zm-2.3-30.9l-38-18.4-30.8 14.9 38 18.4zm-143.4 32.6l90.1 43.5 57.6-27.8-90.1-43.6zm162.5 8.5l-90.1-43.5-12.5 6 90.1 43.6zm16.3-24.1l-30.9 14.9 16.8 8.2 30.9-15z"/><path class="st63" d="M1092.6 399.6l-1.8.9"/><path fill="none" stroke="#fff" stroke-linecap="round" stroke-linejoin="round" stroke-dasharray="2.7321,1.366" d="M1089.6 401.1l-3.1 1.4"/><path class="st63" d="M1085.9 402.8l-1.8.9m15.4-7.4l-1.3.6"/><path fill="none" stroke="#fff" stroke-linecap="round" stroke-linejoin="round" stroke-dasharray="2.003,1.3353" d="M1096.9 397.5l-2.4 1.2"/><path class="st63" d="M1093.9 398.9l-1.3.7m13-6.3l-.9.4"/><path fill="none" stroke="#fff" stroke-linecap="round" stroke-linejoin="round" stroke-dasharray="1.585,1.585" d="M1103.3 394.4l-2.2 1.1"/><path class="st63" d="M1100.4 395.8l-.9.5"/><path fill="none" stroke="#b7a106" stroke-linecap="round" stroke-linejoin="round" stroke-miterlimit="10" stroke-dasharray="0,2" d="M1099.7 399l-12.7 6.1"/><path class="st68" d="M1108.5 394.7l-8.8 4.3"/><path fill="none" stroke="#fff" stroke-linecap="round" stroke-linejoin="round" stroke-miterlimit="10" stroke-dasharray="1,2" d="M1111.4 396.1l-21.5 10.4"/><path class="st68" d="M1102.3 403.4l-9.4 4.6"/><path fill="none" stroke="#b7a106" stroke-linecap="round" stroke-linejoin="round" stroke-miterlimit="10" stroke-dasharray="2,1" d="M1114.4 397.6l-12.1 5.8"/><g class="st71"><path class="st4" d="M961 398.3l-16.9 8.1c-.2.1-.7.1-1-.1-.3-.1-.3-.4-.1-.5l16.9-8.1c.2-.1.7-.1 1 .1.2.2.3.4.1.5zm-17 4.2l-4 1.9c-.2.1-.7.1-1-.1-.3-.1-.3-.4-.1-.5l4-1.9c.2-.1.7-.1 1 .1.3.2.3.4.1.5zm26.6-8.9l-7.2 3.5c-.2.1-.7.1-1-.1-.3-.1-.3-.4-.1-.5l7.2-3.5c.2-.1.7-.1 1 .1.3.2.4.4.1.5zm-8.8 8.3l-10.4 5c-.2.1-.7.1-1-.1-.3-.1-.3-.4-.1-.5l10.4-5c.2-.1.7-.1 1 .1.3.1.3.4.1.5zm9.7-4.7l-7.2 3.5c-.2.1-.7.1-1-.1-.3-.1-.3-.4-.1-.5l7.2-3.5c.2-.1.7-.1 1 .1.3.2.3.4.1.5zm19.3-9.3l-16.9 8.1c-.2.1-.7.1-1-.1-.3-.1-.3-.4-.1-.5l16.9-8.1c.2-.1.7-.1 1 .1.3.2.4.4.1.5zM959.4 407l-4 1.9c-.2.1-.7.1-1-.1-.3-.1-.3-.4-.1-.5l4-1.9c.2-.1.7-.1 1 .1.3.2.3.4.1.5z"/><path class="st72" d="M978.8 397.7l-16.9 8.1c-.2.1-.7.1-1-.1-.3-.1-.3-.4-.1-.5l16.9-8.1c.2-.1.7-.1 1 .1.2.1.3.4.1.5z"/><path class="st4" d="M994.9 389.9l-13.7 6.6c-.2.1-.7.1-1-.1-.3-.1-.3-.4-.1-.5l13.7-6.6c.2-.1.7-.1 1 .1.3.2.3.4.1.5zm-21.8 14.5l-10.4 5c-.2.1-.7.1-1-.1-.3-.1-.3-.4-.1-.5l10.4-5c.2-.1.7-.1 1 .1.3.1.4.3.1.5zm19.1-9.2l-16.6 8c-.2.1-.7.1-1-.1-.3-.1-.3-.4-.1-.5l16.6-8c.2-.1.7-.1 1 .1.3.2.3.4.1.5z"/><path class="st72" d="M998.9 391.9l-4.3 2.1c-.2.1-.7.1-1-.1-.3-.1-.3-.4-.1-.5l4.3-2.1c.2-.1.7-.1 1 .1.3.2.4.4.1.5zm-28.8 17.9l-9.8 4.7c-.2.1-.7.1-1-.1-.3-.1-.3-.4-.1-.5l9.8-4.7c.2-.1.7-.1 1 .1.3.2.3.4.1.5z"/><path class="st4" d="M983.7 403.3l-11.1 5.3c-.2.1-.7.1-1-.1-.3-.1-.3-.4-.1-.5l11.1-5.3c.2-.1.7-.1 1 .1.2.1.3.4.1.5z"/><path class="st72" d="M991.4 399.5l-4.9 2.4c-.2.1-.7.1-1-.1-.3-.1-.3-.4-.1-.5l4.9-2.4c.2-.1.7-.1 1 .1.3.2.3.4.1.5z"/><path class="st4" d="M978 409.9l-10.4 5c-.2.1-.7.1-1-.1-.3-.1-.3-.4-.1-.5l10.4-5c.2-.1.7-.1 1 .1.3.2.4.4.1.5zm9.7-4.6l-7.2 3.5c-.2.1-.7.1-1-.1-.3-.1-.3-.4-.1-.5l7.2-3.5c.2-.1.7-.1 1 .1.3.2.4.4.1.5zm19.4-9.3l-16.9 8.1c-.2.1-.7.1-1-.1-.3-.1-.3-.4-.1-.5l16.9-8.1c.2-.1.7-.1 1 .1.3.1.3.3.1.5zm-29.5 18.1l-5.9 2.8c-.2.1-.7.1-1-.1-.3-.1-.3-.4-.1-.5l5.9-2.8c.2-.1.7-.1 1 .1.3.2.3.4.1.5z"/><path class="st72" d="M995 405.7l-14.9 7.2c-.2.1-.7.1-1-.1-.3-.1-.3-.4-.1-.5l14.9-7.2c.2-.1.7-.1 1 .1.3.2.3.4.1.5z"/><path class="st4" d="M1011.1 398l-13.7 6.6c-.2.1-.7.1-1-.1-.3-.1-.3-.4-.1-.5l13.7-6.6c.2-.1.7-.1 1 .1.3.1.4.4.1.5zm-21.7 14.4l-10.4 5c-.2.1-.7.1-1-.1-.3-.1-.3-.4-.1-.5l10.4-5c.2-.1.7-.1 1 .1.3.2.3.4.1.5zm22.2-10.7l-19.8 9.5c-.2.1-.7.1-1-.1-.3-.1-.3-.4-.1-.5l19.8-9.5c.2-.1.7-.1 1 .1.3.2.4.4.1.5z"/><path class="st72" d="M1015.2 400l-1.1.5c-.2.1-.7.1-1-.1-.3-.1-.3-.4-.1-.5l1.1-.5c.2-.1.7-.1 1 .1.3.2.3.4.1.5zm-28.9 17.9l-9.8 4.7c-.2.1-.7.1-1-.1-.3-.1-.3-.4-.1-.5l9.8-4.7c.2-.1.7-.1 1 .1.3.1.4.4.1.5z"/><path class="st4" d="M996.1 429l-3.3 1.6c-.2.1-.7.1-1-.1-.3-.1-.3-.4-.1-.5l3.3-1.6c.2-.1.7-.1 1 .1.3.2.4.4.1.5zm3.8-17.7l-11.1 5.3c-.2.1-.7.1-1-.1-.3-.1-.3-.4-.1-.5l11.1-5.3c.2-.1.7-.1 1 .1.3.2.3.4.1.5zm14.2-6.8l-11.4 5.5c-.2.1-.7.1-1-.1-.3-.1-.3-.4-.1-.5l11.4-5.5c.2-.1.7-.1 1 .1.3.2.3.4.1.5zM994.3 418l-10.4 5c-.2.1-.7.1-1-.1-.3-.1-.3-.4-.1-.5l10.4-5c.2-.1.7-.1 1 .1.3.2.3.4.1.5zm9.7-4.6l-7.2 3.5c-.2.1-.7.1-1-.1-.3-.1-.3-.4-.1-.5l7.2-3.5c.2-.1.7-.1 1 .1.2.1.3.3.1.5zm19.3-9.4l-16.9 8.1c-.2.1-.7.1-1-.1-.3-.1-.3-.4-.1-.5l16.9-8.1c.2-.1.7-.1 1 .1.3.2.4.4.1.5z"/><path class="st72" d="M993.8 422.2l-2.7 1.3c-.2.1-.7.1-1-.1-.3-.1-.3-.4-.1-.5l2.7-1.3c.2-.1.7-.1 1 .1.3.2.4.4.1.5z"/><path class="st4" d="M1011.2 413.8l-14.9 7.2c-.2.1-.7.1-1-.1-.3-.1-.3-.4-.1-.5l14.9-7.2c.2-.1.7-.1 1 .1.3.2.4.4.1.5zm16.2-7.8l-13.7 6.6c-.2.1-.7.1-1-.1-.3-.1-.3-.4-.1-.5l13.7-6.6c.2-.1.7-.1 1 .1.3.2.3.4.1.5zm-21.8 14.5l-7.2 3.5c-.2.1-.7.1-1-.1-.3-.1-.3-.4-.1-.5l7.2-3.5c.2-.1.7-.1 1 .1.3.2.4.4.1.5z"/><path class="st72" d="M1021.4 412.9l-13.3 6.4c-.2.1-.7.1-1-.1-.3-.1-.3-.4-.1-.5l13.3-6.4c.2-.1.7-.1 1 .1.3.2.4.4.1.5z"/><path class="st4" d="M1031.4 408.1l-7.5 3.6c-.2.1-.7.1-1-.1-.3-.1-.3-.4-.1-.5l7.5-3.6c.2-.1.7-.1 1 .1.3.1.4.4.1.5z"/></g><g class="st71"><path class="st72" d="M1013.8 424.5l-16.9 8.1c-.2.1-.7.1-1-.1-.3-.1-.3-.4-.1-.5l16.9-8.1c.2-.1.7-.1 1 .1.2.2.3.4.1.5z"/><path class="st4" d="M1023.4 419.9l-7.2 3.5c-.2.1-.7.1-1-.1-.3-.1-.3-.4-.1-.5l7.2-3.5c.2-.1.7-.1 1 .1.3.1.4.4.1.5zm-8.8 8.2l-10.4 5c-.2.1-.7.1-1-.1-.3-.1-.3-.4-.1-.5l10.4-5c.2-.1.7-.1 1 .1.3.2.3.4.1.5zm9.7-4.7l-7.2 3.5c-.2.1-.7.1-1-.1-.3-.1-.3-.4-.1-.5l7.2-3.5c.2-.1.7-.1 1 .1.3.2.3.4.1.5zm19.3-9.3l-16.9 8.1c-.2.1-.7.1-1-.1-.3-.1-.3-.4-.1-.5l16.9-8.1c.2-.1.7-.1 1 .1.3.2.4.4.1.5z"/><path class="st72" d="M1012.2 433.2l-4 1.9c-.2.1-.7.1-1-.1-.3-.1-.3-.4-.1-.5l4-1.9c.2-.1.7-.1 1 .1.3.2.3.4.1.5z"/><path class="st4" d="M1031.6 423.9l-16.9 8.1c-.2.1-.7.1-1-.1-.3-.1-.3-.4-.1-.5l16.9-8.1c.2-.1.7-.1 1 .1.2.2.3.4.1.5zm16.1-7.8l-13.7 6.6c-.2.1-.7.1-1-.1-.3-.1-.3-.4-.1-.5l13.7-6.6c.2-.1.7-.1 1 .1.3.2.3.4.1.5zm-21.8 14.5l-10.4 5c-.2.1-.7.1-1-.1-.3-.1-.3-.4-.1-.5l10.4-5c.2-.1.7-.1 1 .1.3.2.4.4.1.5zm19.1-9.2l-16.6 8c-.2.1-.7.1-1-.1-.3-.1-.3-.4-.1-.5l16.6-8c.2-.1.7-.1 1 .1.3.2.3.4.1.5z"/><path class="st72" d="M1051.7 418.2l-4.3 2.1c-.2.1-.7.1-1-.1-.3-.1-.3-.4-.1-.5l4.3-2.1c.2-.1.7-.1 1 .1.3.1.4.3.1.5z"/><path class="st4" d="M1022.9 436l-9.8 4.7c-.2.1-.7.1-1-.1-.3-.1-.3-.4-.1-.5l9.8-4.7c.2-.1.7-.1 1 .1.3.2.3.4.1.5zm13.5-6.5l-11.1 5.3c-.2.1-.7.1-1-.1-.3-.1-.3-.4-.1-.5l11.1-5.3c.2-.1.7-.1 1 .1.3.2.4.4.1.5zm7.8-3.7l-4.9 2.4c-.2.1-.7.1-1-.1-.3-.1-.3-.4-.1-.5l4.9-2.4c.2-.1.7-.1 1 .1.3.1.3.4.1.5z"/><path class="st72" d="M1030.8 436.2l-10.4 5c-.2.1-.7.1-1-.1-.3-.1-.3-.4-.1-.5l10.4-5c.2-.1.7-.1 1 .1.3.2.4.4.1.5z"/><path class="st4" d="M1040.5 431.5l-7.2 3.5c-.2.1-.7.1-1-.1-.3-.1-.3-.4-.1-.5l7.2-3.5c.2-.1.7-.1 1 .1.3.2.3.4.1.5zm19.4-9.3l-16.9 8.1c-.2.1-.7.1-1-.1-.3-.1-.3-.4-.1-.5l16.9-8.1c.2-.1.7-.1 1 .1.3.2.3.4.1.5z"/></g><path class="st62" d="M965 386.9l-3.3-1.5-36.7 17.7 3.2 1.6zm34.6-19.8l3.3 1.5 14.7-7.1-3.3-1.5z"/><path opacity=".7" fill="#baa631" d="M1029.8 347.5v-.1l-2.3-1.1-114.6 55.5 1.8.9 1.9.9.4.2 114.6-55.5z"/><path class="st4" d="M1026.1 345.6c-4.2-2-9.2-2-13.4 0l-70.9 34.3-29.6 14.3c-3 1.5-3 5.8 0 7.2l.7.3 114.7-55.4-1.5-.7z"/><path class="st74" d="M1050.3 399.1l-3.7 1.8c-.2.1-.6.1-.8 0-.2-.1-.2-.3 0-.4l3.7-1.8c.2-.1.6-.1.8 0 .2.1.2.3 0 .4zm-4.3-.7l-2.2 1.1c-.2.1-.6.1-.8 0-.2-.1-.2-.3 0-.4l2.2-1.1c.2-.1.6-.1.8 0 .2.2.2.3 0 .4zm7.7 1.7l-4.3 2.1c-.2.1-.6.1-.8 0-.2-.1-.2-.3 0-.4l4.3-2.1c.2-.1.6-.1.8 0 .3.2.2.3 0 .4zm1.3 2.1l-2.8 1.4c-.2.1-.6.1-.8 0-.2-.1-.2-.3 0-.4l2.8-1.4c.2-.1.6-.1.8 0 .2.1.2.3 0 .4zm3.7.9l-3.7 1.8c-.2.1-.6.1-.8 0-.2-.1-.2-.3 0-.4l3.7-1.8c.2-.1.6-.1.8 0 .3.2.3.3 0 .4zm2.2 1.7l-3.1 1.5c-.2.1-.6.1-.8 0-.2-.1-.2-.3 0-.4l3.1-1.5c.2-.1.6-.1.8 0 .3.1.3.3 0 .4zm3.5 1.1l-3.7 1.8c-.2.1-.6.1-.8 0-.2-.1-.2-.3 0-.4l3.7-1.8c.2-.1.6-.1.8 0 .2.1.2.3 0 .4zm4 .7l-4.9 2.4c-.2.1-.6.1-.8 0-.2-.1-.2-.3 0-.4l4.9-2.4c.2-.1.6-.1.8 0 .2.1.2.3 0 .4zm1.6 2l-3.7 1.8c-.2.1-.6.1-.8 0-.2-.1-.2-.3 0-.4l3.7-1.8c.2-.1.6-.1.8 0 .2.1.2.3 0 .4zm2.2 1.6l-3.1 1.5c-.2.1-.6.1-.8 0-.2-.1-.2-.3 0-.4l3.1-1.5c.2-.1.6-.1.8 0 .2.2.2.3 0 .4zm3.4 1.1l-3.7 1.8c-.2.1-.6.1-.8 0-.2-.1-.2-.3 0-.4l3.7-1.8c.2-.1.6-.1.8 0 .2.1.2.3 0 .4zm4.6.5l-5.5 2.7c-.2.1-.6.1-.8 0-.2-.1-.2-.3 0-.4l5.5-2.7c.2-.1.6-.1.8 0 .3.1.3.3 0 .4zm1 2.2l-3.7 1.8c-.2.1-.6.1-.8 0-.2-.1-.2-.3 0-.4l3.7-1.8c.2-.1.6-.1.8 0 .3.1.3.3 0 .4zm-81.5-39.4l-3.7 1.8c-.2.1-.6.1-.8 0-.2-.1-.2-.3 0-.4l3.7-1.8c.2-.1.6-.1.8 0 .2.1.2.3 0 .4zm2.2 1.7l-3.1 1.5c-.2.1-.6.1-.8 0-.2-.1-.2-.3 0-.4l3.1-1.5c.2-.1.6-.1.8 0 .2.1.2.3 0 .4zm3.4 1l-3.7 1.8c-.2.1-.6.1-.8 0-.2-.1-.2-.3 0-.4l3.7-1.8c.2-.1.6-.1.8 0 .2.2.2.3 0 .4zm2.2 1.7l-3.1 1.5c-.2.1-.6.1-.8 0-.2-.1-.2-.3 0-.4l3.1-1.5c.2-.1.6-.1.8 0 .3.1.2.3 0 .4zm3.4 1.1l-3.7 1.8c-.2.1-.6.1-.8 0-.2-.1-.2-.3 0-.4l3.7-1.8c.2-.1.6-.1.8 0 .3.1.3.2 0 .4zm4.7.4l-5.5 2.7c-.2.1-.6.1-.8 0-.2-.1-.2-.3 0-.4l5.5-2.7c.2-.1.6-.1.8 0 .2.1.2.3 0 .4zm1 2.3l-3.7 1.8c-.2.1-.6.1-.8 0-.2-.1-.2-.3 0-.4l3.7-1.8c.2-.1.6-.1.8 0 .2.1.2.3 0 .4zm2.2 1.6l-3.1 1.5c-.2.1-.6.1-.8 0-.2-.1-.2-.3 0-.4l3.1-1.5c.2-.1.6-.1.8 0 .2.1.2.3 0 .4zm11.2 5.5l-3.1 1.5c-.2.1-.6.1-.8 0-.2-.1-.2-.3 0-.4l3.1-1.5c.2-.1.6-.1.8 0 .2.1.2.2 0 .4zm-7.8-4.4l-3.7 1.8c-.2.1-.6.1-.8 0-.2-.1-.2-.3 0-.4l3.7-1.8c.2-.1.6-.1.8 0 .2.1.2.3 0 .4zm4.6.5l-5.5 2.7c-.2.1-.6.1-.8 0-.2-.1-.2-.3 0-.4l5.5-2.7c.2-.1.6-.1.8 0 .2.1.2.3 0 .4zm1 2.2l-3.7 1.8c-.2.1-.6.1-.8 0-.2-.1-.2-.3 0-.4l3.7-1.8c.2-.1.6-.1.8 0 .2.1.2.3 0 .4zm5 3l-3.1 1.5c-.2.1-.6.1-.8 0-.2-.1-.2-.3 0-.4l3.1-1.5c.2-.1.6-.1.8 0 .3.1.2.3 0 .4zm11.3 5.4l-3.1 1.5c-.2.1-.6.1-.8 0-.2-.1-.2-.3 0-.4l3.1-1.5c.2-.1.6-.1.8 0 .2.2.2.3 0 .4zm-7.9-4.3l-3.7 1.8c-.2.1-.6.1-.8 0-.2-.1-.2-.3 0-.4l3.7-1.8c.2-.1.6-.1.8 0 .3.1.3.3 0 .4zm4.7.4l-5.5 2.7c-.2.1-.6.1-.8 0-.2-.1-.2-.3 0-.4l5.5-2.7c.2-.1.6-.1.8 0 .2.2.2.3 0 .4zm1 2.3l-3.7 1.8c-.2.1-.6.1-.8 0-.2-.1-.2-.3 0-.4l3.7-1.8c.2-.1.6-.1.8 0 .2.1.2.3 0 .4z"/><g class="st71"><path class="st4" d="M1020.9 368.4l-5 2.4c-.2.1-.5.1-.7 0-.2-.1-.2-.2-.1-.3l5-2.4c.2-.1.5-.1.7 0 .2.1.3.2.1.3zm-2.8-1.4l-5 2.4c-.2.1-.5.1-.7 0-.2-.1-.2-.2-.1-.3l5-2.4c.2-.1.5-.1.7 0 .2.1.3.2.1.3z"/><path class="st74" d="M1025.9 368.7l-7.2 3.5c-.2.1-.5.1-.7 0-.2-.1-.2-.2-.1-.3l7.2-3.5c.2-.1.5-.1.7 0 .3.1.3.2.1.3z"/><path class="st4" d="M1024.3 372.3l-2.7 1.3c-.2.1-.5.1-.7 0-.2-.1-.2-.2-.1-.3l2.7-1.3c.2-.1.5-.1.7 0 .2 0 .3.2.1.3zm7.2-.8l-7.2 3.5c-.2.1-.5.1-.7 0-.2-.1-.2-.2-.1-.3l7.2-3.5c.2-.1.5-.1.7 0 .3.1.3.2.1.3z"/><path class="st74" d="M1033.9 373.1l-6.7 3.3c-.2.1-.5.1-.7 0-.2-.1-.2-.2-.1-.3l6.7-3.3c.2-.1.5-.1.7 0 .2.1.3.2.1.3z"/><path class="st4" d="M1037.1 374.3l-7.2 3.5c-.2.1-.5.1-.7 0-.2-.1-.2-.2-.1-.3l7.2-3.5c.2-.1.5-.1.7 0 .3 0 .3.2.1.3z"/><path class="st74" d="M1036.8 377.1l-4.1 2c-.2.1-.5.1-.7 0-.2-.1-.2-.2-.1-.3l4.1-2c.2-.1.5-.1.7 0 .3.1.3.3.1.3z"/><path class="st4" d="M1039.6 364.8l-7 3.4c-.2.1-.5.1-.7 0-.2-.1-.2-.2-.1-.3l7-3.4c.2-.1.5-.1.7 0 .3.1.3.2.1.3zm-10.2-3.3l-5.2 2.5c-.2.1-.5.1-.7 0-.2-.1-.2-.2-.1-.3l5.2-2.5c.2-.1.5-.1.7 0 .3.1.3.2.1.3z"/><path class="st74" d="M1031.4 363.3l-4.3 2.1c-.2.1-.5.1-.7 0-.2-.1-.2-.2-.1-.3l4.3-2.1c.2-.1.5-.1.7 0 .2.1.2.3.1.3z"/><path class="st4" d="M1035 364.3l-5.2 2.5c-.2.1-.5.1-.7 0-.2-.1-.2-.2-.1-.3l5.2-2.5c.2-.1.5-.1.7 0 .3.1.3.2.1.3z"/><path class="st74" d="M1042.4 366.2l-7 3.4c-.2.1-.5.1-.7 0-.2-.1-.2-.2-.1-.3l7-3.4c.2-.1.5-.1.7 0 .3.1.3.2.1.3zm1.1 2.2l-5.2 2.5c-.2.1-.5.1-.7 0-.2-.1-.2-.2-.1-.3l5.2-2.5c.2-.1.5-.1.7 0 .2.1.2.3.1.3z"/><path class="st4" d="M1045.4 370.3l-4.3 2.1c-.2.1-.5.1-.7 0-.2-.1-.2-.2-.1-.3l4.3-2.1c.2-.1.5-.1.7 0 .2 0 .2.2.1.3zm3.7.9l-5.2 2.5c-.2.1-.5.1-.7 0-.2-.1-.2-.2-.1-.3l5.2-2.5c.2-.1.5-.1.7 0 .2.1.2.2.1.3zm-5.9 8.3l-5 2.4c-.2.1-.5.1-.7 0-.2-.1-.2-.2-.1-.3l5-2.4c.2-.1.5-.1.7 0 .3.1.3.3.1.3zm-2.8-1.3l-5 2.4c-.2.1-.5.1-.7 0-.2-.1-.2-.2-.1-.3l5-2.4c.2-.1.5-.1.7 0 .3 0 .3.2.1.3z"/><path class="st74" d="M1048.3 379.9l-7.2 3.5c-.2.1-.5.1-.7 0-.2-.1-.2-.2-.1-.3l7.2-3.5c.2-.1.5-.1.7 0 .2 0 .2.2.1.3zm3.5-7.2l-5.2 2.5c-.2.1-.5.1-.7 0-.2-.1-.2-.2-.1-.3l5.2-2.5c.2-.1.5-.1.7 0 .2 0 .2.2.1.3z"/><path class="st4" d="M1053.7 374.5l-4.3 2.1c-.2.1-.5.1-.7 0-.2-.1-.2-.2-.1-.3l4.3-2.1c.2-.1.5-.1.7 0 .2.1.2.2.1.3zm3.7.9l-5.2 2.5c-.2.1-.5.1-.7 0-.2-.1-.2-.2-.1-.3l5.2-2.5c.2-.1.5-.1.7 0 .2.1.2.3.1.3z"/></g><g class="st71"><path class="st4" d="M1058.6 387.3l-5 2.4c-.2.1-.5.1-.7 0-.2-.1-.2-.2-.1-.3l5-2.4c.2-.1.5-.1.7 0 .2.1.2.3.1.3zm-2.9-1.3l-5 2.4c-.2.1-.5.1-.7 0-.2-.1-.2-.2-.1-.3l5-2.4c.2-.1.5-.1.7 0 .3 0 .3.2.1.3z"/><path class="st74" d="M1063.6 387.6l-7.2 3.5c-.2.1-.5.1-.7 0-.2-.1-.2-.2-.1-.3l7.2-3.5c.2-.1.5-.1.7 0 .2.1.2.3.1.3z"/><path class="st4" d="M1061.9 391.2l-2.7 1.3c-.2.1-.5.1-.7 0-.2-.1-.2-.2-.1-.3l2.7-1.3c.2-.1.5-.1.7 0 .3.1.3.2.1.3zm7.3-.8l-7.2 3.5c-.2.1-.5.1-.7 0-.2-.1-.2-.2-.1-.3l7.2-3.5c.2-.1.5-.1.7 0 .2.1.2.2.1.3z"/><path class="st74" d="M1071.5 392l-6.7 3.3c-.2.1-.5.1-.7 0-.2-.1-.2-.2-.1-.3l6.7-3.3c.2-.1.5-.1.7 0 .3.1.3.2.1.3z"/><path class="st4" d="M1074.8 393.2l-7.2 3.5c-.2.1-.5.1-.7 0-.2-.1-.2-.2-.1-.3l7.2-3.5c.2-.1.5-.1.7 0 .2.1.3.2.1.3z"/><path class="st74" d="M1074.5 396.1l-4.1 2c-.2.1-.5.1-.7 0-.2-.1-.2-.2-.1-.3l4.1-2c.2-.1.5-.1.7 0 .2.1.2.2.1.3z"/><path class="st4" d="M1077.3 383.8l-7 3.4c-.2.1-.5.1-.7 0-.2-.1-.2-.2-.1-.3l7-3.4c.2-.1.5-.1.7 0 .2 0 .2.2.1.3zm-10.2-3.3l-5.2 2.5c-.2.1-.5.1-.7 0-.2-.1-.2-.2-.1-.3l5.2-2.5c.2-.1.5-.1.7 0 .2 0 .2.2.1.3z"/><path class="st74" d="M1069 382.3l-4.3 2.1c-.2.1-.5.1-.7 0-.2-.1-.2-.2-.1-.3l4.3-2.1c.2-.1.5-.1.7 0 .2 0 .3.2.1.3z"/><path class="st4" d="M1072.7 383.2l-5.2 2.5c-.2.1-.5.1-.7 0-.2-.1-.2-.2-.1-.3l5.2-2.5c.2-.1.5-.1.7 0 .2.1.3.2.1.3zm7.4 1.9l-7 3.4c-.2.1-.5.1-.7 0-.2-.1-.2-.2-.1-.3l7-3.4c.2-.1.5-.1.7 0 .2.1.2.3.1.3zm1 2.3l-5.2 2.5c-.2.1-.5.1-.7 0-.2-.1-.2-.2-.1-.3l5.2-2.5c.2-.1.5-.1.7 0 .2.1.3.2.1.3zm1.9 1.8l-4.3 2.1c-.2.1-.5.1-.7 0-.2-.1-.2-.2-.1-.3l4.3-2.1c.2-.1.5-.1.7 0 .2.1.3.2.1.3zm3.7 1l-5.2 2.5c-.2.1-.5.1-.7 0-.2-.1-.2-.2-.1-.3l5.2-2.5c.2-.1.5-.1.7 0 .2 0 .3.2.1.3zm-8.6 6.9l-5 2.4c-.2.1-.5.1-.7 0-.2-.1-.2-.2-.1-.3l5-2.4c.2-.1.5-.1.7 0 .2.1.2.2.1.3z"/><path class="st74" d="M1089.4 391.6l-5.2 2.5c-.2.1-.5.1-.7 0-.2-.1-.2-.2-.1-.3l5.2-2.5c.2-.1.5-.1.7 0 .2.1.3.2.1.3z"/></g><path class="st46" d="M910.6 450.7v1.2L863.3 429c-1.9-.9-4.1-.9-6 0l-79.6 37.4c-.2.1-.4-.8-.5-.7l-.5-.3v3.7c0 .6.4 1.2 1 1.5l50.9 24.6c1.9.9 4.1.9 6 0l79.6-38.4c.6-.3 1-.9 1-1.5v-3.6l-4.6-1z"/><path class="st47" d="M777.7 464l79.6-38.4c1.9-.9 4.1-.9 6 0l50.9 24.6c1.3.6 1.3 2.5 0 3.2l-79.6 38.4c-1.9.9-4.1.9-6 0l-50.9-24.6c-1.4-.6-1.4-2.5 0-3.2z"/><path class="st56" d="M780.1 467.6v-1.3l-2.4.2c-.2.1-.4-.8-.5-.7l-.5-.3v3.7c0 .6.4 1.2 1 1.5l2.6 1.2v-4.3h-.2z"/><path class="st55" d="M863.3 425.6c-1.9-.9-4.1-.9-6 0L777.7 464c-1.3.6-1.3 2.5 0 3.2l2.6 1.2 85.8-41.5-2.8-1.3zm-45.5 34.2l-20 9.7c-.3.1-.8.1-1.2-.1-.4-.2-.4-.4-.1-.6l20-9.7c.3-.1.8-.1 1.2.1.3.2.4.5.1.6z"/><path class="st75" d="M797.7 464.8l-4.7 2.3c-.3.1-.8.1-1.2-.1-.4-.2-.4-.4-.1-.6l4.7-2.3c.3-.1.8-.1 1.2.1.3.2.3.5.1.6z"/><path class="st55" d="M829.3 454.3l-8.6 4.1c-.3.1-.8.1-1.2-.1-.4-.2-.4-.4-.1-.6l8.6-4.1c.3-.1.8-.1 1.2.1.3.2.4.5.1.6z"/><path class="st75" d="M818.8 464.1l-12.4 6c-.3.1-.8.1-1.2-.1-.4-.2-.4-.4-.1-.6l12.4-6c.3-.1.8-.1 1.2.1.3.2.4.4.1.6z"/><path class="st55" d="M830.3 458.5l-8.6 4.1c-.3.1-.8.1-1.2-.1-.4-.2-.4-.4-.1-.6l8.6-4.1c.3-.1.8-.1 1.2.1.3.3.4.5.1.6z"/><path class="st75" d="M853.3 447.5l-20 9.7c-.3.1-.8.1-1.2-.1-.4-.2-.4-.4-.1-.6l20-9.7c.3-.1.8-.1 1.2.1.3.2.4.4.1.6z"/><path class="st55" d="M816 470.2l-4.7 2.3c-.3.1-.8.1-1.2-.1-.4-.2-.4-.4-.1-.6l4.7-2.3c.3-.1.8-.1 1.2.1.3.2.4.4.1.6zm23-11.1l-20 9.7c-.3.1-.8.1-1.2-.1-.4-.2-.4-.4-.1-.6l20-9.7c.3-.1.8-.1 1.2.1.3.2.3.5.1.6zm19.1-9.2l-16.2 7.8c-.3.1-.8.1-1.2-.1-.4-.2-.4-.4-.1-.6l16.2-7.8c.3-.1.8-.1 1.2.1.3.2.4.4.1.6zM832.3 467l-12.4 6c-.3.1-.8.1-1.2-.1-.4-.2-.4-.4-.1-.6l12.4-6c.3-.1.8-.1 1.2.1.3.2.4.5.1.6z"/><path class="st75" d="M854.9 456.1l-19.7 9.5c-.3.1-.8.1-1.2-.1-.4-.2-.4-.4-.1-.6l19.7-9.5c.3-.1.8-.1 1.2.1.3.2.4.5.1.6z"/><path class="st55" d="M862.9 452.3l-5.1 2.5c-.3.1-.8.1-1.2-.1-.4-.2-.4-.4-.1-.6l5.1-2.5c.3-.1.8-.1 1.2.1.4.2.4.4.1.6zm-34.2 21.2l-11.6 5.6c-.3.1-.8.1-1.2-.1-.4-.2-.4-.4-.1-.6l11.6-5.6c.3-.1.8-.1 1.2.1.3.2.4.4.1.6zm16.1-7.8l-13.2 6.3c-.3.1-.8.1-1.2-.1-.4-.2-.4-.4-.1-.6l13.2-6.3c.3-.1.8-.1 1.2.1.3.2.4.5.1.6zm9.2-4.4l-5.9 2.8c-.3.1-.8.1-1.2-.1-.4-.2-.4-.4-.1-.6l5.9-2.8c.3-.1.8-.1 1.2.1.3.2.3.5.1.6z"/><path class="st75" d="M838.1 473.7l-12.4 6c-.3.1-.8.1-1.2-.1-.4-.2-.4-.4-.1-.6l12.4-6c.3-.1.8-.1 1.2.1.3.2.4.4.1.6zm11.5-5.6l-8.6 4.1c-.3.1-.8.1-1.2-.1-.4-.2-.4-.4-.1-.6l8.6-4.1c.3-.1.8-.1 1.2.1.3.2.4.5.1.6z"/><path class="st55" d="M872.6 457.1l-20 9.7c-.3.1-.8.1-1.2-.1-.4-.2-.4-.4-.1-.6l20-9.7c.3-.1.8-.1 1.2.1.3.2.4.4.1.6zm-35 21.5l-7 3.4c-.3.1-.8.1-1.2-.1-.4-.2-.4-.4-.1-.6l7-3.4c.3-.1.8-.1 1.2.1.3.3.3.5.1.6zm20.7-9.9l-17.7 8.6c-.3.1-.8.1-1.2-.1-.4-.2-.4-.4-.1-.6L857 468c.3-.1.8-.1 1.2.1.3.2.3.4.1.6zm19.1-9.2l-16.2 7.8c-.3.1-.8.1-1.2-.1-.4-.2-.4-.4-.1-.6l16.2-7.8c.3-.1.8-.1 1.2.1.3.2.4.4.1.6zm-25.8 17.1l-12.4 6c-.3.1-.8.1-1.2-.1-.4-.2-.4-.4-.1-.6l12.4-6c.3-.1.8-.1 1.2.1.3.2.4.5.1.6z"/><path class="st75" d="M878 463.9l-23.5 11.3c-.3.1-.8.1-1.2-.1-.4-.2-.4-.4-.1-.6l23.5-11.3c.3-.1.8-.1 1.2.1.3.2.4.4.1.6zm4.2-2.1l-1.3.6c-.3.1-.8.1-1.2-.1-.4-.2-.4-.4-.1-.6l1.3-.6c.3-.1.8-.1 1.2.1.4.3.4.5.1.6z"/><path class="st55" d="M863.1 433.7l-5.4 2.6c-.3.2-.8.2-1.1 0-.3-.1-.3-.4 0-.5l5.4-2.6c.3-.2.8-.2 1.1 0 .3.1.3.4 0 .5zm3.1 2.4l-4.5 2.2c-.3.2-.8.2-1.1 0-.3-.1-.3-.4 0-.5l4.5-2.2c.3-.2.8-.2 1.1 0 .4.1.3.3 0 .5z"/><path class="st75" d="M871.1 437.6l-5.4 2.6c-.3.2-.8.2-1.1 0-.3-.1-.3-.4 0-.5l5.4-2.6c.3-.2.8-.2 1.1 0 .4.1.4.4 0 .5zm3.2 2.4l-4.5 2.2c-.3.2-.8.2-1.1 0-.3-.1-.3-.4 0-.5l4.5-2.2c.3-.2.8-.2 1.1 0 .3.1.3.3 0 .5z"/><path class="st55" d="M879.2 441.5l-5.4 2.6c-.3.2-.8.2-1.1 0-.3-.1-.3-.4 0-.5l5.4-2.6c.3-.2.8-.2 1.1 0 .4.1.3.4 0 .5zm6.7.7l-8 3.9c-.3.2-.8.2-1.1 0-.3-.1-.3-.4 0-.5l8-3.9c.3-.2.8-.2 1.1 0 .3.1.3.4 0 .5zm1.4 3.2l-5.4 2.6c-.3.2-.8.2-1.1 0-.3-.1-.3-.4 0-.5l5.4-2.6c.3-.2.8-.2 1.1 0 .3.1.3.4 0 .5z"/><path class="st75" d="M890.5 447.8L886 450c-.3.2-.8.2-1.1 0-.3-.1-.3-.4 0-.5l4.5-2.2c.3-.2.8-.2 1.1 0 .3.1.3.4 0 .5z"/><path class="st55" d="M895.4 449.3L890 452c-.3.2-.8.2-1.1 0-.3-.1-.3-.4 0-.5l5.4-2.6c.3-.2.8-.2 1.1 0 .3 0 .3.3 0 .4zm6.6.7l-8 3.9c-.3.2-.8.2-1.1 0-.3-.1-.3-.4 0-.5l8-3.9c.3-.2.8-.2 1.1 0 .4.1.4.4 0 .5z"/><path class="st75" d="M903.5 453.2l-5.4 2.6c-.3.2-.8.2-1.1 0-.3-.1-.3-.4 0-.5l5.4-2.6c.3-.2.8-.2 1.1 0 .3.1.3.4 0 .5z"/><path class="st1" d="M1152.8 247.7v.9l-33.6-16.2c-1.4-.7-2.9-.7-4.3 0l-63.5 28.7c-.1.1-.3.2-.4.3l-.3-.2v2.5c0 .4.3.8.7 1.1l36.2 17.5c1.4.7 2.9.7 4.3 0l63.5-30.7c.4-.2.7-.6.7-1.1v-2.4l-3.3-.4z"/><path class="st3" d="M1051.4 260l63.5-30.7c1.4-.7 2.9-.7 4.3 0l36.2 17.5c.9.5.9 1.8 0 2.2l-63.5 30.7c-1.4.7-2.9.7-4.3 0l-36.2-17.5c-.9-.4-.9-1.7 0-2.2z"/><path d="M1051.4 261c-.1.1-.3.2-.4.3l-.3-.2v2.5c0 .4.3.8.7 1.1l.4.2v-4l-.4.1z" fill="#bcbcbc"/><path class="st4" d="M1119.2 229.3c-1.4-.7-2.9-.7-4.3 0l-63.5 30.7c-.9.5-.9 1.8 0 2.2l.4.2 68-32.9-.6-.2z"/><path class="st77" d="M1083.4 254.9l-16.9 8.2c-.2.1-.7.1-1-.1-.3-.1-.3-.4-.1-.5l16.9-8.2c.2-.1.7-.1 1 .1.2.2.3.4.1.5z"/><path class="st0" d="M1066.3 259.2l-4 1.9c-.2.1-.7.1-1-.1-.3-.1-.3-.4-.1-.5l4-1.9c.2-.1.7-.1 1 .1.3.1.4.3.1.5z"/><path class="st77" d="M1093.1 250.3l-7.2 3.5c-.2.1-.7.1-1-.1-.3-.1-.3-.4-.1-.5l7.2-3.5c.2-.1.7-.1 1 .1.2.1.3.4.1.5z"/><path class="st0" d="M1084.2 258.5l-10.5 5c-.2.1-.7.1-1-.1-.3-.1-.3-.4-.1-.5l10.5-5c.2-.1.7-.1 1 .1.3.2.3.4.1.5z"/><path class="st77" d="M1093.9 253.9l-7.2 3.5c-.2.1-.7.1-1-.1-.3-.1-.3-.4-.1-.5l7.2-3.5c.2-.1.7-.1 1 .1.3.1.3.3.1.5z"/><path class="st0" d="M1113.3 244.5l-16.9 8.2c-.2.1-.7.1-1-.1-.3-.1-.3-.4-.1-.5l16.9-8.2c.2-.1.7-.1 1 .1.3.2.3.4.1.5z"/><path class="st77" d="M1081.8 263.7l-4 1.9c-.2.1-.7.1-1-.1-.3-.1-.3-.4-.1-.5l4-1.9c.2-.1.7-.1 1 .1.3.1.3.3.1.5zm19.4-9.4l-16.9 8.2c-.2.1-.7.1-1-.1-.3-.1-.3-.4-.1-.5l16.9-8.2c.2-.1.7-.1 1 .1.3.2.3.4.1.5zm16.2-7.8l-13.7 6.6c-.2.1-.7.1-1-.1-.3-.1-.3-.4-.1-.5l13.7-6.6c.2-.1.7-.1 1 .1.3.2.3.4.1.5zm-21.8 14.5l-10.5 5c-.2.1-.7.1-1-.1-.3-.1-.3-.4-.1-.5l10.5-5c.2-.1.7-.1 1 .1.3.2.3.4.1.5z"/><path class="st0" d="M1114.6 251.8l-16.6 8c-.2.1-.7.1-1-.1-.3-.1-.3-.4-.1-.5l16.6-8c.2-.1.7-.1 1 .1.3.2.4.4.1.5z"/><path class="st77" d="M1121.4 248.5l-4.3 2.1c-.2.1-.7.1-1-.1-.3-.1-.3-.4-.1-.5l4.3-2.1c.2-.1.7-.1 1 .1.3.2.4.4.1.5zm-28.9 18l-9.8 4.7c-.2.1-.7.1-1-.1-.3-.1-.3-.4-.1-.5l9.8-4.7c.2-.1.7-.1 1 .1.3.1.4.3.1.5zm13.6-6.6l-11.1 5.3c-.2.1-.7.1-1-.1-.3-.1-.3-.4-.1-.5l11.1-5.3c.2-.1.7-.1 1 .1.3.2.3.4.1.5zm7.8-3.7l-5 2.4c-.2.1-.7.1-1-.1-.3-.1-.3-.4-.1-.5l5-2.4c.2-.1.7-.1 1 .1.3.2.3.4.1.5z"/><path class="st0" d="M1100.5 266.6l-10.5 5c-.2.1-.7.1-1-.1-.3-.1-.3-.4-.1-.5l10.5-5c.2-.1.7-.1 1 .1.3.2.3.4.1.5zm9.7-4.7l-7.2 3.5c-.2.1-.7.1-1-.1-.3-.1-.3-.4-.1-.5l7.2-3.5c.2-.1.7-.1 1 .1.3.2.3.4.1.5z"/><path class="st77" d="M1129.6 252.6l-16.9 8.2c-.2.1-.7.1-1-.1-.3-.1-.3-.4-.1-.5l16.9-8.2c.2-.1.7-.1 1 .1.3.2.3.4.1.5zm-29.6 18.2l-5.9 2.9c-.2.1-.7.1-1-.1-.3-.1-.3-.4-.1-.5l5.9-2.9c.2-.1.7-.1 1 .1.3.2.4.4.1.5zm17.5-8.4l-15 7.2c-.2.1-.7.1-1-.1-.3-.1-.3-.4-.1-.5l15-7.2c.2-.1.7-.1 1 .1.3.2.3.4.1.5zm16.2-7.8l-13.7 6.6c-.2.1-.7.1-1-.1-.3-.1-.3-.4-.1-.5l13.7-6.6c.2-.1.7-.1 1 .1.2.2.3.4.1.5zm-17.1-19.9l-4.2 2.1c-.3.1-.6.1-.9 0-.2-.1-.2-.3 0-.4l4.2-2.1c.3-.1.6-.1.9 0 .3.1.3.3 0 .4zm2.5 1.9l-3.5 1.7c-.3.1-.6.1-.9 0-.2-.1-.2-.3 0-.4l3.5-1.7c.3-.1.6-.1.9 0 .3.1.3.2 0 .4z"/><path class="st0" d="M1123 237.8l-4.2 2.1c-.3.1-.6.1-.9 0-.2-.1-.2-.3 0-.4l4.2-2.1c.3-.1.6-.1.9 0 .2.1.2.2 0 .4zm2.5 1.8l-3.5 1.7c-.3.1-.6.1-.9 0-.2-.1-.2-.3 0-.4l3.5-1.7c.3-.1.6-.1.9 0 .2.1.2.3 0 .4z"/><path class="st77" d="M1129.3 240.8l-4.2 2.1c-.3.1-.6.1-.9 0-.2-.1-.2-.3 0-.4l4.2-2.1c.3-.1.6-.1.9 0 .3.1.3.3 0 .4zm5.2.6l-6.2 3c-.3.1-.6.1-.9 0-.2-.1-.2-.3 0-.4l6.2-3c.3-.1.6-.1.9 0 .3.1.3.2 0 .4zm1.1 2.5l-4.2 2.1c-.3.1-.6.1-.9 0-.2-.1-.2-.3 0-.4l4.2-2.1c.3-.1.6-.1.9 0 .3.1.3.3 0 .4z"/><path class="st0" d="M1138.1 245.8l-3.5 1.7c-.3.1-.6.1-.9 0-.2-.1-.2-.3 0-.4l3.5-1.7c.3-.1.6-.1.9 0 .3 0 .3.2 0 .4z"/><path class="st77" d="M1142 247l-4.2 2.1c-.3.1-.6.1-.9 0-.2-.1-.2-.3 0-.4l4.2-2.1c.3-.1.6-.1.9 0 .2 0 .2.2 0 .4zm5.2.5l-6.2 3c-.3.1-.6.1-.9 0-.2-.1-.2-.3 0-.4l6.2-3c.3-.1.6-.1.9 0 .3.1.2.3 0 .4z"/></svg>